<?xml version="1.0" encoding="utf-8"?>
<!-- Generator: Adobe Illustrator 22.0.1, SVG Export Plug-In . SVG Version: 6.00 Build 0)  -->
<svg version="1.1" xmlns="http://www.w3.org/2000/svg" xmlns:xlink="http://www.w3.org/1999/xlink" x="0px" y="0px"
	 viewBox="0 0 762 276" style="enable-background:new 0 0 762 276;" xml:space="preserve">
<style type="text/css">
	.st0{fill:url(#SVGID_1_);}
</style>
<g id="Layer_1">
	<linearGradient id="SVGID_1_" gradientUnits="userSpaceOnUse" x1="18.1912" y1="144.3509" x2="742.387" y2="144.3509">
		<stop  offset="0" style="stop-color:#FFEF26"/>
		<stop  offset="1.783161e-02" style="stop-color:#FFEA21"/>
		<stop  offset="0.102" style="stop-color:#FED70F"/>
		<stop  offset="0.1886" style="stop-color:#FDCC04"/>
		<stop  offset="0.2809" style="stop-color:#FDC800"/>
		<stop  offset="0.6685" style="stop-color:#F18F34"/>
		<stop  offset="0.8876" style="stop-color:#E95F32"/>
		<stop  offset="1" style="stop-color:#E3312D"/>
	</linearGradient>
	<path class="st0" d="M499,178.2l-0.3,47.3c-0.1,23.6-12.5,35.1-31.6,35.1c-20.4,0-33.6-15-33.6-39v-22.5h2.2c5.3,0,8.3,3.5,8.3,7.3
		v10.2l3.4,3.7v-46c0-3.8,2.2-6.2,5.3-6.2s5.2,2.4,5.2,6.2v35.9h3.2v-43.1c0-3.7,2.1-6,5.3-6c2.8,0,5.1,2.4,5.1,6v43.1h3.2v-37.9
		c0-3.7,2.4-6,5.5-6c2.8,0,5.1,2.4,5.1,6l-0.1,37.9h3.2v-32c0-3.8,2.5-6,5.1-6C496.4,172.1,499,174.4,499,178.2z M137.6,206.4
		c0-9.9,8-18,18-18c9.9,0,17.9,8,17.9,18c0,9.9-8,18-17.9,18C145.7,224.3,137.6,216.3,137.6,206.4z M169.3,206.4
		c0-7.6-6.1-13.7-13.7-13.7c-7.6,0-13.7,6.2-13.7,13.7c0,7.6,6.1,13.7,13.7,13.7C163.2,220.1,169.3,214,169.3,206.4z M154.1,196.5
		V208h9.4v-3.1h-6.3v-8.5H154.1z M244.2,206.5c1,0.6,1.8,1.8,1.8,3.1c0,2.1-1.8,3.8-3.8,3.8c-2.1,0-3.7-1.8-3.7-3.8
		c0-1.4,0.7-2.5,1.8-3.2v-9.1c0-1.1,0.9-1.9,2-1.9c1.1,0,2,0.8,2,1.9V206.5z M242.6,207.9v-10.7h-0.9v10.7c-0.8,0.2-1.3,0.9-1.3,1.7
		c0,1,0.8,1.8,1.8,1.8c1,0,1.8-0.8,1.8-1.8C244,208.8,243.4,208.1,242.6,207.9z M246.7,197.2H245v1.5h1.7V197.2z M246.7,200.7H245
		v1.5h1.7V200.7z M246.7,204.3H245v1.5h1.7V204.3z M149.2,56.3l1.5,4.9c0,0.1,0.1,0.4,0.1,0.5c0,0.4-0.3,0.6-0.7,0.6H147l-0.5,8
		c0,0.3-0.3,0.8-0.8,0.8h-3.3l0.4-6.7h0.9c0.6,0,0.9-0.3,0.8-0.9l-0.5-6.2c-0.1-0.9-0.5-1.3-1.1-1.4c-1.3-0.3-2.9-0.3-2.9-0.3
		s-1.6,0-2.9,0.3c-0.7,0.1-1,0.5-1.1,1.4l-0.5,6.2v0.1c0,0.6,0.3,0.8,0.8,0.8h0.9l0.4,6.7h-3.9c-0.5,0-0.7-0.4-0.8-0.8L132,56.3h-1
		c-0.8,0-1.3-0.5-1.2-1.4l0.9-8.6c0.2-1.3,1.2-2.4,3.8-2.4h13.3c0.8,0,1.5,0.6,1.5,1.3c0,0.8-0.4,1.1-0.8,1.2v0.1
		c0.4,0,0.8,0.3,0.8,0.6l2.2,7.7c0,0.1,0.1,0.4,0.1,0.6c0,0.6-0.4,0.9-1,0.9H149.2z M138.2,42.5c0.3-0.5,0.4-2.5,0.4-3.6
		c0-0.5-0.1-0.7-0.3-0.9c-0.6-0.5-1.2-0.8-1.9-0.8c-0.6,0-1.3,0.3-1.8,0.8c-0.2,0.2-0.2,0.5-0.2,1c0,1.1,0.1,3,0.4,3.5
		c0.1,0.2,0.7,0.6,1.7,0.6C137.5,43.1,138,42.7,138.2,42.5z M141.3,54.1c0.2-0.4,0.4-1.9,0.4-2.8c0-0.4-0.1-0.6-0.3-0.8
		c-0.4-0.4-0.9-0.5-1.5-0.5c-0.5,0-1,0.2-1.4,0.5c-0.2,0.1-0.2,0.4-0.2,0.8c0,0.9,0.1,2.4,0.3,2.7c0.1,0.2,0.6,0.5,1.4,0.5
		C140.8,54.6,141.2,54.3,141.3,54.1z M145.6,42.4c0.3-0.5,0.3-2.3,0.3-3.5c0-0.5,0-0.8-0.2-1c-0.5-0.5-1.1-0.8-1.7-0.8
		c-0.7,0-1.4,0.2-2,0.8c-0.2,0.2-0.3,0.4-0.3,0.9c0,1.2,0.1,3.1,0.4,3.6c0.1,0.3,0.8,0.7,1.7,0.7C144.9,43.1,145.5,42.7,145.6,42.4z
		 M180.2,62.5c0,1-0.8,1.7-1.7,1.7h-6.7c-1.4,0-2.6-1.3-2.6-2.6c0-1.4,1.2-2.6,2.6-2.6c0.2,0,0.4,0,0.6,0.1c0.2-0.7,0.9-1.3,1.7-1.3
		c0.9,0,1.7,0.8,1.7,1.7v0c0.1,0,0.3,0,0.4,0c0.9,0,1.7,0.6,2.1,1.4c0.1,0,0.2,0,0.3,0C179.4,60.8,180.2,61.6,180.2,62.5z
		 M173.4,67.3c0.1,0.2,0.1,0.5-0.1,0.6c-0.1,0-0.1,0.1-0.3,0.1c-0.1,0-0.3-0.1-0.4-0.2l-1.1-1.6c-0.2-0.2-0.1-0.5,0.1-0.6
		c0.2-0.2,0.5-0.1,0.6,0.1L173.4,67.3z M176.1,67.3c0.1,0.2,0.1,0.5-0.1,0.6c-0.1,0-0.2,0.1-0.3,0.1c-0.1,0-0.3-0.1-0.4-0.2
		l-1.1-1.6c-0.1-0.2-0.1-0.5,0.1-0.6c0.2-0.2,0.5-0.1,0.6,0.1L176.1,67.3z M178.7,67.3c0.2,0.2,0.1,0.5-0.1,0.6
		c-0.1,0-0.2,0.1-0.3,0.1c-0.1,0-0.3-0.1-0.4-0.2l-1.1-1.6c-0.1-0.2-0.1-0.5,0.1-0.6c0.2-0.2,0.5-0.1,0.6,0.1L178.7,67.3z
		 M71.9,155.4c-3.7,0-6.8-3-6.8-6.8c0-3.7,3.1-6.8,6.8-6.8c3.7,0,6.8,3,6.8,6.8C78.7,152.4,75.6,155.4,71.9,155.4z M72.6,149.8
		l1.6-0.5c0.5-0.2,0.6-0.4,0.6-1.1v-1.9c0-0.8-0.4-1.4-1.8-1.4h-2.1c-1.2,0-1.9,0.7-1.9,1.4v0.9h1.4l0.4-0.5h2.4v1.4l-1.6,0.6
		c-0.5,0.2-0.7,0.6-0.7,1.1v0.5h1.8V149.8z M72.6,151.5c0-0.2-0.1-0.3-0.2-0.3H71c-0.2,0-0.3,0.1-0.3,0.3v1c0,0.1,0.1,0.2,0.3,0.2
		h1.4c0.2,0,0.2-0.1,0.2-0.2V151.5z M266.3,113.7l-3.7,3.7h-3.2l2.3-2.3h-8.3v-3h8.3l-2.3-2.3h3.2L266.3,113.7z M209.6,66.6v9.1
		c0,0.4-0.3,0.7-0.7,0.7h-8.1l2-2.2h-1.5L194,81l1.1-4.7h-3.1c-0.4,0-0.7-0.3-0.7-0.7v-9.1c0-0.4,0.3-0.7,0.7-0.7h16.9
		C209.3,65.8,209.6,66.2,209.6,66.6z M181.6,153.5c-0.8,0-0.9,0-1,0c-0.1,0-0.2,0-0.2-0.1l-0.1-2.4l-0.4-0.1
		c-0.2-0.1-0.4-0.1-0.4-0.4l0.1-2.7c0-0.4,0.3-0.5,0.6-0.6c0.5-0.1,1-0.1,1.2-0.1c0.2,0,0.6,0,1.3,0.1c0.3,0.1,0.6,0.2,0.6,0.6
		l0.1,2.7c0,0.3-0.1,0.3-0.4,0.4l-0.4,0.1l0,2.4c0,0.1-0.1,0.1-0.1,0.2C182.6,153.4,182.4,153.5,181.6,153.5z M181,146.3
		c-0.1-0.2-0.2-0.9-0.2-1.3c0-0.2,0-0.3,0.1-0.3c0.2-0.2,0.5-0.3,0.7-0.3c0.2,0,0.5,0.1,0.6,0.3c0.1,0.1,0.1,0.2,0.1,0.4
		c0,0.4,0,1.1-0.1,1.3c-0.1,0.1-0.3,0.2-0.6,0.2C181.3,146.5,181.1,146.4,181,146.3z M117,76.4l-9.1,9.1v-8.3l9.1-9.1l9.1,9.1v8.3
		L117,76.4z M125.4,102.9h-7.1c-0.3,0-0.8-0.3-0.9-0.6L113,91h-0.7v11.3c0,0.3-0.3,0.6-0.6,0.6h-3c-0.3,0-0.6-0.2-0.6-0.6V87.6
		c0-0.3,0.2-0.6,0.6-0.6h7.1c0.3,0,0.8,0.3,0.9,0.6l4.5,11.3h0.7V87.6c0-0.3,0.2-0.6,0.6-0.6h3c0.3,0,0.6,0.2,0.6,0.6v14.7
		C126.1,102.7,125.8,102.9,125.4,102.9z M266.1,96.4c0,0.4-0.3,0.7-0.8,0.7h-19.2c-0.5,0-0.8-0.3-0.8-0.7c0-0.1,0.1-0.3,0.1-0.5
		l9.6-16.7c0.1-0.3,0.4-0.4,0.7-0.4c0.3,0,0.5,0.1,0.7,0.4L266,96C266.1,96.1,266.1,96.3,266.1,96.4z M264,95.6l-8.3-14.4l-8.2,14.4
		h3.7l2.5-4.5h4.2l2.6,4.5H264z M256.5,86.9c0.1-0.2,0.4-0.3,0.6-0.3c0.5,0,0.9,0.4,0.9,0.9c0.3,0.3,0.6,0.7,0.6,1.1
		c0,0.7-0.6,1.3-1.3,1.3h-0.1c-0.1,0.4-0.5,0.6-0.9,0.6c-0.5,0-0.9-0.4-0.9-0.9c0-0.3,0.1-0.5,0.4-0.7c-0.1,0-0.1,0-0.2,0
		c-0.5,0-0.9-0.3-1.1-0.7c-0.1,0.1-0.3,0.1-0.4,0.1c-0.5,0-0.9-0.4-0.9-0.9c0-0.5,0.4-0.9,0.9-0.9c0.3,0,0.5,0.1,0.7,0.3
		c0.2-0.2,0.5-0.3,0.8-0.3C255.9,86.4,256.3,86.6,256.5,86.9z M73.5,192.2v0.2h-8.9v-0.2l3.3-3.7H70L73.5,192.2z M65.8,184.9
		c0-0.5,0.4-0.9,0.9-0.9c0.3,0,0.5,0.1,0.7,0.3c0.2-0.2,0.5-0.3,0.8-0.3c0.4,0,0.7,0.2,0.9,0.4c0.2-0.2,0.4-0.2,0.6-0.2
		c0.5,0,0.9,0.4,0.9,0.9c0.3,0.2,0.5,0.6,0.5,1c0,0.7-0.6,1.3-1.3,1.3h-0.1c-0.1,0.4-0.5,0.6-0.9,0.6c-0.5,0-0.9-0.4-0.9-0.9
		c0-0.3,0.1-0.5,0.4-0.7c-0.1,0-0.1,0-0.2,0c-0.5,0-0.9-0.3-1.1-0.7c-0.1,0.1-0.3,0.1-0.4,0.1C66.2,185.8,65.8,185.4,65.8,184.9z
		 M88.2,215v3.1h-8.1V215l1.3-0.4v-5.7h0.8v5.5l1.8-0.5L88.2,215z M84.6,212h-1.9v-3.1h2.7l0.6,0.6h2v3.1h-2.8L84.6,212z
		 M166.5,98.6c0,4.8-3.9,8.8-8.7,8.8c-4.9,0-8.8-4.1-8.8-8.8c0-3,1.4-5.5,3.6-7.1l-0.8-2.9c-0.2-0.7-0.2-1.6,0.6-2.4l3.2-3.1
		c0.6-0.6,1.1-0.8,2.2-0.7l2.6,0.4c0.9,0.1,1.6,0.9,1.6,1.8l0.4,2.6l0.4,2.9c-1.5-0.9-3.1-1.4-5-1.4h-1.3l-0.2-1.7v-0.3
		c-0.1-0.2-0.3-0.3-0.5-0.1l-1.4,1.5c-0.2,0.1-0.2,0.3-0.2,0.5l0.4,1.9c1-0.4,2.1-0.6,3.1-0.6C162.6,89.8,166.5,93.7,166.5,98.6z
		 M164.1,98.6c0-3.5-2.8-6.3-6.3-6.3c-0.9,0-1.8,0.2-2.5,0.5c0.1,0.6,0,1.3-0.8,1.5c-0.4,0.1-0.8,0-1-0.3c-1.2,1.1-2,2.8-2,4.5
		c0,3.5,2.8,6.3,6.3,6.3S164.1,102.1,164.1,98.6z M157.9,81c-0.3-0.5-0.4-2.4-0.4-3.4c0-0.5,0-0.7,0.2-0.9c0.5-0.4,1.1-0.7,1.7-0.7
		c0.6,0,1.2,0.2,1.8,0.7c0.2,0.2,0.2,0.5,0.2,1c0,1.1-0.1,2.9-0.4,3.3c-0.1,0.2-0.6,0.6-1.6,0.6C158.6,81.5,158,81.1,157.9,81z
		 M172.4,103.4c0,0.2-0.1,0.5-0.4,0.5l-1.8,0.4c-0.5,0.1-0.8,0-1-0.7l-1.6-6.4c-0.3-1.5-0.7-2.7-1.5-3.9h2.4c1.2,0,2.1,0.7,2.2,1.6
		L172.4,103.4z M211.5,129c0.3,0.1,0.5,0.3,0.5,0.6c0,0.4-0.3,0.7-0.6,0.7c-0.1,0-0.2,0-0.3,0l-1.9-0.6v0.1l1.4,4.7
		c0,0.2,0.1,0.4,0.1,0.6l0.2,3.7H210c-0.3,0-0.6-0.2-0.6-0.5l-0.3-3.1l-0.3-0.8l-1.8-0.2l-2.6,4l-0.5-0.3c-0.2-0.1-0.4-0.4-0.4-0.6
		c0-0.2,0-0.4,0.2-0.6l1.7-2.6l-0.9-0.1c-0.2,0-0.3-0.1-0.3-0.3c0-0.1,0-0.2,0-0.2l1.7-3.7l0.2-2.7h-0.1l-1.8,3.4
		c-0.1,0.3-0.4,0.5-0.6,0.5c-0.1,0-0.2,0-0.3-0.1c-0.2-0.1-0.3-0.3-0.3-0.5c0-0.1,0-0.2,0.1-0.4l2.2-4.2c0.2-0.4,0.5-0.6,0.9-0.7
		c0,0,0.4-0.1,1.4-0.1c1.1,0,1.8,0.5,1.7,2.1l-0.1,1.2L211.5,129z M207.7,124.6c0.6,0,0.8-0.2,0.9-0.3c0.1-0.3,0.2-1.2,0.2-1.8
		c0-0.3,0-0.5-0.1-0.6c-0.3-0.3-0.6-0.4-1-0.4c-0.4,0-0.7,0.1-1,0.4c-0.1,0.1-0.1,0.2-0.1,0.5c0,0.6,0.1,1.6,0.2,1.9
		C206.9,124.4,207.2,124.6,207.7,124.6z M98.3,87.6L87.2,76.5v39.4H72.6V76.4L61.5,87.6V71.9l18.4-18.4l18.4,18.4V87.6z
		 M183.6,214.3c0,0.2-0.1,0.3-0.3,0.3c-0.2,0-0.2-0.1-0.4-0.2l-0.8-0.9c-0.2-0.2-0.3-0.5-0.3-0.8h0v2l0.8,1.7c0,0.1,0.1,0.2,0.1,0.3
		l0.2,2h-0.4c-0.2,0-0.4-0.1-0.4-0.4l-0.2-1.5l-0.8-1.6c0,0-0.1-0.1-0.1-0.1c0,0-0.1,0-0.1,0.1l-0.3,1.6c0,0.1-0.1,0.2-0.2,0.3
		l-1.5,1.4l-0.2-0.2c-0.1-0.1-0.2-0.2-0.2-0.4c0-0.1,0-0.2,0.1-0.3l1.1-1.1l0.3-1.8v-1.6c0-0.2,0-0.3,0-0.4h0l-0.3,0.5l-0.4,1.2
		c-0.1,0.2-0.2,0.3-0.4,0.3c-0.2,0-0.3-0.1-0.3-0.3c0-0.1,0-0.1,0-0.2l0.4-1.2c0-0.1,0.1-0.1,0.1-0.2l0.5-0.9
		c0.2-0.3,0.5-0.5,1.2-0.5c0.8,0,1.2,0.1,1.3,0.5l0.4,1.1l0.8,0.9C183.6,214.1,183.6,214.2,183.6,214.3z M180.5,211.1
		c-0.1-0.1-0.1-0.7-0.1-1c0-0.1,0-0.2,0.1-0.3c0.2-0.1,0.3-0.2,0.5-0.2c0.2,0,0.3,0.1,0.5,0.2c0.1,0.1,0.1,0.1,0.1,0.3
		c0,0.3,0,0.8-0.1,0.9c0,0.1-0.2,0.2-0.5,0.2C180.7,211.3,180.5,211.2,180.5,211.1z M71.7,172.2l-5.6-5.6l5.6-5.6l5.6,5.6
		L71.7,172.2z M266.8,205.9c0,0.2-0.1,0.4-0.4,0.4h-10.2c-0.3,0-0.4-0.2-0.4-0.4c0-0.1,0-0.2,0.1-0.2l5.1-8.9
		c0.1-0.1,0.2-0.2,0.4-0.2s0.3,0.1,0.4,0.2l5.2,8.9C266.8,205.7,266.8,205.8,266.8,205.9z M258.9,201.8c0.6-0.4,1.3-0.6,2.1-0.6
		c1.5,0,2.1,1,2.3,1.4l-0.1,0c-0.1-0.2-0.5-0.3-0.9-0.3c-0.7,0-1,0.5-1,0.9c0,0.8,0.8,1.5,2.6,1.5c0.5,0,0.9-0.1,1.2-0.2l-3.9-6.8
		L258.9,201.8z M42.4,77.2c-3.1,0-5.5-2.5-5.5-5.5c0-3.1,2.5-5.5,5.5-5.5c3,0,5.5,2.5,5.5,5.5C48,74.8,45.5,77.2,42.4,77.2z
		 M41.6,74.2V73h-1.2v1.2H41.6z M43.4,69.1h-1l-2.1,0.6V71l1.8-0.6v3.7h2.5V73h-1.2V69.1z M85,142c0-17.8,12.2-26.6,25.3-26.6
		c13.3,0,21.4,8.4,21.4,17.3c0,8.6-5.3,13.2-10.7,13.2c-1.9,0-4.2-1-4.8-1.5v-0.9c0.5-0.4,1-1.4,1-2.5c0-1.6-1.4-3.5-3.8-3.5
		s-4.8,1.7-4.8,6.8c0,6.2,5.3,9.4,12,9.4c10.9,0,16.8-11.7,32.3-11.7c11.5,0,20.4,6.1,21.9,7.2v26H85V142z M174.6,141.9v-17.4
		l-16.6-6.5l-16.5,6.5v12.8c2.7-1,6.3-2.1,11.2-2.1C164.3,135.2,173,140.5,174.6,141.9z M190.9,127.1c0,2.3-2.8,4.2-6.2,4.2
		s-6.2-1.8-6.2-4.2c0-1.9,1.8-3.5,4.3-4V92.3h3.4v30.7C188.9,123.6,190.9,125.2,190.9,127.1z M210.7,94.7v14.7h-11.9l-2.5-2.4h-7.9
		V92.3h11.4l2.5,2.4H210.7z M27.2,132h-3.5v3.5h-2V132h-3.5v-2h3.5v-3.5h2v3.5h3.5V132z M32,133.1h1.6v1.5H32V133.1z M37.6,133.1
		v1.5h-3.2v-1.5v-3.4l-2.4,0.8v-1.7l2.8-0.8H36v5.1H37.6z M46.2,130.4v-0.9h-2.4l-0.2,0.7l-1.3,0v-1.1c0-0.6,0.6-1.1,1.4-1.1h2.8
		c0.9,0,1.3,0.5,1.3,1.1v1.5c0,0.5-0.3,0.9-0.7,1l-2.5,0.9v-1.5L46.2,130.4z M43.8,133.1h4v1.5h-5.5v-1.9c0-0.8,0.4-1.2,1.5-1.5
		V133.1z M54.5,131.6h-1.4c-0.8,0-1.1-0.4-1.1-1v-3.3c0-0.6,0.2-1,1.5-1v3.8h0.9V131.6z M55.2,127.8h-0.9v-1.4h1.3
		c0.9,0,1.1,0.4,1.1,1v3.3c0,0.6-0.3,1-1.5,1V127.8z M191.4,207.4v-58.3c0-3.4,1.7-4.8,4.6-4.8h29.7c3.7,0,4.9,1.4,4.9,4.8v58.3
		c0,2.3-1.2,3.3-3.3,3.3h-33.2C193.1,210.7,191.4,209.5,191.4,207.4z M224.8,153.2h-27.7c-0.6,0-1.2,0.7-1.2,1.3v43.6
		c0,0.6,0.6,1.1,1.2,1.1h27.7c0.5,0,1.2-0.5,1.2-1.1v-43.6C226.1,153.9,225.4,153.2,224.8,153.2z M206,147.6c-0.6,0-1.1,0.5-1.1,1.2
		c0,0.6,0.5,1.1,1.1,1.1h10c0.7,0,1.2-0.5,1.2-1.1c0-0.7-0.5-1.2-1.2-1.2H206z M208,205c0,1.7,1.3,3.1,3,3.1c1.7,0,3.1-1.3,3.1-3.1
		c0-1.6-1.3-3-3.1-3C209.4,202,208,203.3,208,205z M238.7,177.2c3.6-3.5,5.5-8.2,5.5-13.1s-1.9-9.7-5.5-13.1
		c-0.1-0.2-0.4-0.3-0.6-0.3c-0.2,0-0.4,0.1-0.6,0.3l-2,2c-0.4,0.4-0.4,0.9,0,1.2c2.6,2.6,4,6.3,4,9.9c0.1,3.7-1.2,7.1-4,9.9
		c-0.2,0.1-0.3,0.4-0.3,0.6c0,0.2,0.1,0.4,0.3,0.6l2,2c0.2,0.2,0.4,0.3,0.6,0.3C238.3,177.5,238.6,177.4,238.7,177.2z M245.8,182.7
		c5.2-5.2,7.7-11.8,7.7-18.6c0-6.6-2.5-13.4-7.7-18.6c-0.1-0.1-0.3-0.2-0.6-0.2c-0.2,0-0.4,0.1-0.6,0.2l-2,2.1
		c-0.2,0.1-0.3,0.4-0.3,0.6c0,0.2,0.1,0.4,0.3,0.6c4.1,4.1,6.3,9.5,6.3,15.3c0,5.8-2.2,11.2-6.3,15.3c-0.3,0.4-0.3,0.9,0,1.2l2,2.1
		c0.2,0.2,0.4,0.2,0.6,0.2C245.5,182.9,245.7,182.9,245.8,182.7z M253.1,188c6.3-6.4,9.9-15.1,9.9-24c0-9.1-3.6-17.4-9.9-24
		c-0.2-0.2-0.4-0.3-0.6-0.3c-0.3,0-0.5,0.1-0.6,0.3l-2.1,2c-0.3,0.4-0.3,0.9,0,1.2c5.4,5.5,8.6,12.7,8.6,20.8
		c0,7.8-3.1,15.3-8.6,20.8c-0.3,0.3-0.3,0.9,0,1.2l2.1,2c0.1,0.2,0.3,0.3,0.6,0.3C252.7,188.4,252.9,188.3,253.1,188z M55.2,85.3
		v36.1H27.7V85.3H55.2z M52.5,88.2H30.6v30.2h21.9V88.2z M34.6,112.7h-3v-2.8h3V89.3h2.8v20.6h14.1v2.8H37.4v4.7h-2.8V112.7z
		 M40.4,102.8c-0.4-0.8-0.7-1.6-0.7-2.5c0-2.6,2.2-4.9,4.9-4.9s4.9,2.2,4.9,4.9c0,1-0.3,1.7-0.7,2.5l-4.2,6.4L40.4,102.8z
		 M42.5,99.8c0,1.1,0.9,1.9,2,1.9s1.9-0.8,1.9-1.9c0-1.1-0.9-2-1.9-2S42.5,98.7,42.5,99.8z M99.6,184.8v15H93v-9H87v9h-6.5v-15
		l9.6-3.4L99.6,184.8z M116.8,197.4h-3c-0.4,1.3-1.7,2.3-3.1,2.3c-1.8,0-3.3-1.4-3.3-3.3c0-1.8,1.5-3.2,3.3-3.2c1.4,0,2.7,1,3.1,2.3
		h3c0.8,0,1.3-0.8,1.3-1.5v-3.9c-1.4-0.4-2.4-1.7-2.4-3.2c0-1.8,1.5-3.2,3.3-3.2c1.8,0,3.3,1.4,3.3,3.2c0,1.4-0.9,2.6-2.2,3.1v4
		C120.1,195.6,118.8,197.4,116.8,197.4z M130.8,203.6c0,1.8-1.5,3.3-3.3,3.3c-1.5,0-2.8-1-3.1-2.4h-2.5c-1.9,0-3.7-1.8-3.7-3.7v-2.1
		c0.7-0.2,1.4-0.7,1.9-1.3v3.4c0,0.9,1.1,1.8,1.8,1.8h2.5c0.4-1.3,1.7-2.2,3.1-2.2C129.3,200.3,130.8,201.8,130.8,203.6z M247.3,111
		v9.5h-19.5h-10.3V111h10.3V98.8h-10.3v-9.5h19.7h1.4V111H247.3z M225.8,77.4c0-3.6,3-6.7,6.7-6.7c3.6,0,6.7,3,6.7,6.7
		c0,3.6-3,6.7-6.7,6.7C228.8,84,225.8,81,225.8,77.4z M56.6,179.5c-0.9,0-1.8-0.7-2-1.6l-3.5-13.5c-0.1-0.3-0.2-0.4-0.3-0.4
		c-0.1,0-0.2,0.1-0.2,0.4l2.8,35.2c0.1,1.4-0.3,2.2-1.6,2.2h-1.9c-1.4,0-1.7-1.2-1.7-1.8l-2.5-19.3c0-0.2-0.3-0.5-0.6-0.5
		c-0.4,0-0.7,0.2-0.7,0.4L42,200c-0.2,1.1-0.4,1.8-1.7,1.8h-1.9c-1.3,0-1.6-0.8-1.4-2.1l2.6-35.3c0-0.3-0.2-0.4-0.3-0.4
		c-0.2,0-0.3,0.2-0.4,0.4l-3.3,13.5c-0.2,0.9-1,1.6-1.9,1.6c-1.7,0-2.2-1.8-2-2.7l3.9-16.2c0.6-2.1,1.1-2.9,2.9-3.3
		c2.9-0.9,6.7-0.6,6.7-0.6s3.7-0.2,6.8,0.6c1.8,0.4,2.3,1.3,2.8,3.3l4.1,16.3C59.2,178.4,57.7,179.5,56.6,179.5z M48.1,153.8
		c0.5-0.8,0.7-3.9,0.7-5.8c0-1.1-0.2-1.4-0.6-1.8c-0.9-1-1.9-1.4-3-1.4c-1.1,0-2.3,0.5-3.3,1.4c-0.4,0.3-0.6,0.6-0.6,1.5
		c0,2,0.4,5.3,0.7,6c0.3,0.6,1.4,1.3,2.9,1.3C46.8,155.1,47.9,154.4,48.1,153.8z M294.7,184.4c0,4.1-3.3,7.5-7.6,7.5
		c-1,0-1.9-0.2-2.8-0.5l-3.1,3l0.8-4.5c-1.5-1.4-2.4-3.3-2.4-5.5c0-1.1,0.2-2.1,0.6-3H273c-0.2,0-0.4,0.2-0.4,0.5v15
		c0,0.2,0.2,0.4,0.4,0.4h9.5c0.2,0,0.5-0.2,0.5-0.4v-2.5l1-1l0.6,0.2v6.4c0,0.8-0.4,1.1-1.1,1.1H272c-0.4,0-0.9-0.4-0.9-1.1v-20
		c0-1.2,0.6-1.6,1.6-1.6h9.9c1.3-0.9,2.8-1.5,4.5-1.5C291.4,176.9,294.7,180.3,294.7,184.4z M279.9,179.9c0-0.2-0.2-0.4-0.4-0.4
		h-3.4c-0.2,0-0.4,0.2-0.4,0.4c0,0.2,0.2,0.4,0.4,0.4h3.4C279.8,180.3,279.9,180.1,279.9,179.9z M276.8,199.2c0,0.6,0.5,1.1,1,1.1
		c0.6,0,1.1-0.5,1.1-1.1c0-0.6-0.5-1-1.1-1C277.2,198.2,276.8,198.6,276.8,199.2z M289.1,186.9h-0.7v-4h-3v2.1h0.9v1.9h-0.9v2.1h3.7
		V186.9z M286.1,181.4h2.2v-1.9h-2.2V181.4z M338.6,48.8v10.3l-12.1,12l-12.1-12V48.8l7.1,7.1v-9.4c0-4.2-1.4-8.4-6.5-8.4
		c-5.5,0-6.9,4.6-6.9,8.9v24.4h-10.2V46.9c0-11.3,7.1-18.8,17.1-18.8c9.7,0,16.6,7.3,16.6,18.3v9.4L338.6,48.8z M309.2,142.6h-1.2
		c-1,0-1.4-0.5-1.4-1.2v-4c0-0.8,0.3-1.2,1.6-1.2v4.9h1V142.6z M310,137.7h-1v-1.4h1.2c1.1,0,1.4,0.5,1.4,1.2v4
		c0,0.8-0.4,1.2-1.6,1.2V137.7z M314.1,136.2v6.4h-1.6v-6.4H314.1z M316.3,142.6l-1.8-3.2l1.4-3.2h1.7l-1.4,3.2l1.6,2.9v0.3H316.3z
		 M451.6,96.8h-19.2c-0.5,0-0.8-0.3-0.8-0.7c0-0.1,0.1-0.3,0.1-0.5l9.6-16.7c0.1-0.3,0.4-0.4,0.7-0.4s0.5,0.1,0.7,0.4l9.7,16.7
		c0.1,0.1,0.1,0.3,0.1,0.4C452.4,96.5,452.1,96.8,451.6,96.8z M433.7,95.3h16.6L442,80.9L433.7,95.3z M443.3,92.3v-4.1
		c0-0.7-0.6-1.3-1.3-1.3c-0.7,0-1.3,0.6-1.3,1.3v4.1c0,0.7,0.6,1.3,1.3,1.3C442.7,93.5,443.3,92.9,443.3,92.3z M261.7,68l2.7,0.1
		c-1.5,1.5-2.5,3.4-2.8,5.6L261.7,68z M272.8,62.9l-1.1,5.1c-0.6,0-1.1,0.1-1.6,0.2c-3.1,0.8-5.5,3.6-5.6,7l-2.1,0
		c0.1-2.8,1.4-5.4,3.4-7l1.8,0l-0.6-8.3l3.2-1.2l-0.1,3.2L272.8,62.9z M272,69c3.5,0.1,6.3,3,6.2,6.5l-2.1,0
		c0.1-2.3-1.8-4.3-4.1-4.4c-2.3-0.1-4.3,1.8-4.4,4.2l-2.1,0C265.6,71.7,268.5,69,272,69z M271.9,72.1c1.8,0,3.2,1.5,3.1,3.3l-2.1,0
		c0-0.6-0.5-1.2-1.1-1.2c-0.6,0-1.2,0.5-1.2,1.1l-2.1,0C268.7,73.5,270.2,72.1,271.9,72.1z M278.2,68.4c1.9,1.8,3.1,4.3,3,7.2
		l-2.1,0c0.1-3.4-2.2-6.3-5.3-7.2c-0.4-0.1-0.8-0.2-1.2-0.3l1.2-5.7l-2.9-1.2l0.1-3l1-0.4l4.7,1.3l0.7,9.3L278.2,68.4z M282.4,68.5
		l-2.7-0.1c1.4,1.6,2.3,3.5,2.6,5.7L282.4,68.5z M359.7,57.6v17.5h-13.4V57.6H359.7z M358.3,59.1h-10.7v14.7h10.7V59.1z M349.6,70.9
		h-1.5v-1.4h1.5v-10h1.4v10h6.8v1.4H351v2.3h-1.4V70.9z M352.4,66.1c-0.2-0.4-0.3-0.8-0.3-1.2c0-1.3,1.1-2.4,2.4-2.4
		c1.3,0,2.4,1.1,2.4,2.4c0,0.5-0.1,0.8-0.3,1.2l-2,3.1L352.4,66.1z M353.5,64.7c0,0.5,0.4,0.9,1,0.9c0.5,0,0.9-0.4,0.9-0.9
		c0-0.5-0.4-1-0.9-1C354,63.7,353.5,64.2,353.5,64.7z M462.7,80.5c0,0.6-0.2,0.8-0.6,0.9l-0.5,0.1l-0.1,1.8c0,0.1-0.1,0.2-0.2,0.2
		h-1.2c-0.2,0-0.2-0.1-0.2-0.2l-0.1-1.8l-0.5-0.1c-0.4-0.1-0.6-0.3-0.6-0.9c0-1.3,0.6-3.3,0.6-3.3c0.1-0.2,0.3-0.3,1.4-0.3
		c1.1,0,1.4,0.2,1.4,0.3C462.1,77.3,462.7,79.2,462.7,80.5z M459.5,75.6c0-0.2,0.2-0.4,0.4-0.4V75c0-0.2,0-0.3,0.1-0.3
		c0.2-0.2,0.4-0.3,0.7-0.3c0.3,0,0.5,0.1,0.7,0.3c0.1,0.1,0.1,0.2,0.1,0.4v0.1c0.2,0,0.4,0.2,0.4,0.4c0,0.2-0.2,0.4-0.4,0.4h0
		c0,0.1-0.1,0.2-0.1,0.3c-0.1,0.1-0.3,0.2-0.6,0.2c-0.4,0-0.6-0.1-0.6-0.2c0-0.1-0.1-0.2-0.1-0.3h-0.1
		C459.7,76.1,459.5,75.9,459.5,75.6z M275.9,128.3c-0.3,0-0.6-0.3-0.6-0.6c0-0.3,0.2-0.6,0.6-0.6c0.3,0,0.6,0.3,0.6,0.6
		C276.5,128.1,276.2,128.3,275.9,128.3z M287.8,135.1l7.8,8.2v0.3h-20v-0.3l7.4-8.1c-0.6-1.5-1.5-2.7-2.7-2.7c-1.8,0-3,2.8-3.2,3.6
		c-0.1,0.2-0.2,0.3-0.3,0.3c-0.2,0-0.3-0.3-0.2-0.6c0.3-1.1,1.5-4,3.7-4c1.7,0,2.7,1.4,3.4,3.3h0.3c-0.8-4-2.7-6-6-6.5
		c-0.3-0.1-0.6-0.2-0.6-0.6c0-0.3,0.3-0.6,0.6-0.5c4,0.5,6.2,2.8,7.1,7.6c0.3-2.7,1.1-4.9,2.7-5.6c1.5-2.3,3.6-3.6,6.1-3.9
		c0.2,0,0.6,0.2,0.6,0.5c0,0.3-0.3,0.5-0.6,0.6c-1.9,0.3-3.5,1.2-4.6,2.6c0.6,0.1,1.1,0.5,1.6,1c0.3-0.1,0.5-0.1,0.8-0.1
		c2.6,0,3.9,2.6,4.1,3.9c0,0.2,0,0.9-0.5,0.9c-0.2,0-0.4-0.2-0.5-0.5c-0.2-1-1-3.2-3.2-3.2h-0.1c0.8,1.3,1.3,3.2,1.6,4.9
		c0,0.1-0.1,0.4-0.3,0.4c-0.3,0-0.3-0.1-0.3-0.3c-0.4-1.8-0.9-3.6-1.6-4.9C289.2,131.7,288.4,133.2,287.8,135.1z M276.4,137
		c0.3,0,0.6,0.3,0.6,0.6c0,0.3-0.3,0.6-0.6,0.6c-0.3,0-0.6-0.3-0.6-0.6C275.8,137.3,276.1,137,276.4,137z M284.1,129.5
		c0-0.3,0.3-0.6,0.6-0.6s0.6,0.3,0.6,0.6c0,0.3-0.3,0.6-0.6,0.6S284.1,129.8,284.1,129.5z M285.4,135h0.2c0.3-1.7,0.7-3.2,1.3-4.4
		C286.1,131.5,285.7,133.2,285.4,135z M288.6,129.8c-0.9,1.4-1.6,3.2-2,5.2h0.2c0.7-2.1,1.7-3.9,3.2-4.6
		C289.6,130.1,289.2,129.8,288.6,129.8z M292.8,137.1c0.3,0,0.6,0.3,0.6,0.6c0,0.3-0.3,0.6-0.6,0.6c-0.3,0-0.6-0.3-0.6-0.6
		C292.2,137.4,292.5,137.1,292.8,137.1z M296,136.2c0,0.3-0.3,0.6-0.6,0.6c-0.3,0-0.6-0.3-0.6-0.6c0-0.3,0.3-0.6,0.6-0.6
		C295.7,135.6,296,135.9,296,136.2z M294.9,125.8c0-0.3,0.3-0.6,0.6-0.6c0.3,0,0.6,0.3,0.6,0.6c0,0.3-0.3,0.6-0.6,0.6
		C295.2,126.4,294.9,126.1,294.9,125.8z M448.3,157.2c0,0.2-0.1,0.3-0.3,0.3h-8.5c-0.2,0-0.4-0.1-0.4-0.3c0-0.1,0-0.1,0.1-0.2
		l4.3-7.4c0.1-0.1,0.2-0.2,0.3-0.2c0.1,0,0.2,0.1,0.3,0.2l4.3,7.4C448.3,157.1,448.3,157.1,448.3,157.2z M447.4,156.8l-3.7-6.4
		l-3.7,6.4H447.4z M443.7,154.5l0.3-0.5c0-0.1,0.1-0.2,0.3-0.2c0,0,0.1,0,0.3,0c0.2,0,0.4,0.1,0.4,0.4l0,0.2l0.5,0.1
		c0.1,0,0.2,0.1,0.2,0.2c0,0.1-0.1,0.2-0.2,0.2c0,0-0.1,0-0.1,0l-0.3-0.1l0.3,0.8c0,0.1,0,0.1,0,0.2l0,0.8h-0.3
		c-0.1,0-0.1-0.1-0.1-0.1l-0.1-0.6l-0.1-0.2l-0.4,0l-0.5,0.8l-0.2-0.1c-0.1,0-0.1-0.1-0.1-0.1c0,0,0-0.1,0.1-0.1l0.3-0.4l-0.1,0
		c-0.1,0-0.1,0-0.1-0.1c0,0,0-0.1,0-0.1l0.4-0.7l0-0.4h0l-0.3,0.7c-0.1,0.1-0.1,0.1-0.1,0.1c0,0-0.1,0-0.1-0.1l-0.3-0.8h0l0,0.7
		l0.4,1.7h-0.3c-0.1,0-0.1,0-0.1-0.1l-0.3-1.2c0,0,0,0,0,0s0,0,0,0l-0.1,0.6c0,0,0,0.1-0.1,0.1l-0.6,0.6l-0.2-0.2
		c0,0-0.1-0.1-0.1-0.1c0,0,0-0.1,0.1-0.1l0.4-0.4l0.1-0.7l0.1-0.8h0l-0.3,0.6c0,0.1-0.1,0.1-0.2,0.1s-0.2-0.1-0.2-0.2
		c0-0.1,0-0.1,0.1-0.2l0.4-0.8c0.1-0.1,0.2-0.2,0.5-0.2h0.2c0.3,0,0.5,0.1,0.5,0.2L443.7,154.5z M442.7,153.6c0-0.1-0.1-0.3-0.1-0.4
		c0-0.1,0-0.1,0.1-0.1c0.1,0,0.1-0.1,0.2-0.1c0.1,0,0.2,0,0.2,0.1c0,0,0,0.1,0,0.1c0,0.1,0,0.3-0.1,0.4c0,0-0.1,0.1-0.2,0.1
		C442.8,153.7,442.7,153.6,442.7,153.6z M444.3,153.6c0-0.1-0.1-0.3-0.1-0.4c0-0.1,0-0.1,0-0.1c0.1,0,0.1-0.1,0.2-0.1
		c0.1,0,0.2,0,0.2,0.1c0,0,0,0.1,0,0.1c0,0.1,0,0.3-0.1,0.4c0,0-0.1,0.1-0.2,0.1C444.4,153.7,444.3,153.6,444.3,153.6z M284.3,112.3
		h-7.6v-9.5h7.6l3.4,4.8L284.3,112.3z M405.7,227.4v2.9h4.5v2.9h4.3v2.2h-14.2v-8H405.7z M406.2,224.5l-3.3,2.5l-0.3-0.5
		c-0.2-0.4-0.1-1,0.5-1.4l2.3-1.7L406.2,224.5z M408,221l-0.7-1.1h0l0.1,1.8l0.9,1.5c0.2,0.3,0.2,0.4,0.2,0.9v6h-0.7
		c-0.5,0-0.8-0.3-0.8-0.9l-0.2-4.3l-2.1-3.6c-0.2-0.4-0.3-0.8-0.3-1.4v-2.4c0-0.9,0.5-1.6,1.5-1.6c0.7,0,1.1,0.2,1.4,0.9l1,2.4
		l1.6,2.4c0.3,0.4,0,1-0.4,1c-0.3,0-0.4-0.1-0.6-0.4L408,221z M407,214.9c0.1-0.3,0.2-1.1,0.2-1.7c0-0.3,0-0.4-0.1-0.5
		c-0.3-0.2-0.6-0.3-0.9-0.3c-0.3,0-0.6,0.1-0.9,0.3c-0.1,0.1-0.2,0.2-0.2,0.5c0,0.5,0.1,1.5,0.2,1.8c0.1,0.1,0.4,0.3,0.8,0.3
		C406.7,215.2,407,215,407,214.9z M323.9,164.3h5.4c1.4,0,1.9,0.6,2.1,1.5l0.4,2.2c0,0.2,0.1,0.5,0.1,0.7c0,1.3-0.8,2-2.4,2h-0.1
		c-0.1-0.8-0.4-1.5-0.8-1.7c-0.9-0.2-1.9-0.2-1.9-0.2s-1,0-1.9,0.2c-0.4,0.1-0.8,0.9-0.8,1.7h-0.1c-1.6,0-2.4-0.7-2.4-2
		c0-0.2,0-0.5,0.1-0.7l0.4-2.2C322,164.9,322.5,164.3,323.9,164.3z M324.4,163.7c-0.6,0-0.9-0.2-0.9-0.3c-0.2-0.3-0.2-1.3-0.2-1.9
		c0-0.3,0-0.4,0.1-0.6c0.3-0.3,0.6-0.4,1-0.4c0.3,0,0.7,0.1,1,0.4c0.1,0.1,0.2,0.2,0.2,0.5c0,0.6-0.1,1.7-0.2,2
		C325.2,163.5,324.9,163.7,324.4,163.7z M326.6,168.3c0.5,0,0.8-0.2,0.9-0.3c0.1-0.2,0.2-1.2,0.2-1.8c0-0.3,0-0.5-0.2-0.6
		c-0.3-0.2-0.6-0.3-1-0.3c-0.4,0-0.6,0.1-0.9,0.3c-0.1,0.1-0.1,0.3-0.1,0.6c0,0.6,0.1,1.5,0.2,1.7
		C325.7,168.1,326,168.3,326.6,168.3z M328.7,163.7c-0.6,0-0.9-0.2-0.9-0.3c-0.2-0.3-0.2-1.3-0.2-1.9c0-0.3,0-0.4,0.1-0.6
		c0.3-0.3,0.6-0.4,1-0.4c0.4,0,0.7,0.1,1,0.4c0.1,0.1,0.2,0.2,0.2,0.5c0,0.6-0.1,1.7-0.2,2C329.5,163.5,329.2,163.7,328.7,163.7z
		 M498,144.9l-5.3,5.3h-4.5l3-3h-2c-4.6,0-4.9,4.2-4.9,5.4v4.3h-4.5v-4.3c0-5.9,3.9-9.9,9.4-9.9h2.1l-3.1-3.1h4.5L498,144.9z
		 M280.8,89.5l1.4-1.5v2l-2.4,2.4l-2.4-2.4v-2l1.4,1.4v-2.7h1.9V89.5z M286.6,87.6l-1.4-1.4v2.7h-1.9v-2.7l-1.4,1.4v-2l2.4-2.4
		l2.4,2.4V87.6z M337,132.1c-0.1,0-0.3-0.1-0.3-0.2l-0.7-2c0,0,0,0-0.1,0s0,0,0,0.1v1.1l0.9,2.2c0.1,0.2-0.1,0.3-0.2,0.3h-0.5l0.1,2
		c0,0.2-0.1,0.4-0.3,0.4h-0.2c-0.2,0-0.3-0.2-0.3-0.3l-0.2-2.1h-0.3l-0.2,2.1c0,0.2-0.1,0.3-0.3,0.3h-0.2c-0.2,0-0.2-0.1-0.2-0.3
		l0.1-2.1h-0.5c-0.1,0-0.3-0.1-0.2-0.3l0.9-2.2v-1.1c0,0,0-0.1-0.1-0.1c0,0,0,0-0.1,0l-0.7,2c-0.1,0.1-0.2,0.2-0.3,0.2
		c-0.2,0-0.4-0.3-0.3-0.4l1-2.6c0.1-0.3,0.2-0.5,0.5-0.5c0.3-0.1,0.8-0.1,0.8-0.1s0.5,0,0.8,0.1c0.3,0.1,0.4,0.2,0.5,0.5l1,2.6
		C337.4,131.8,337.3,132.1,337,132.1z M334.6,128.1c-0.1-0.2-0.1-0.7-0.1-1c0-0.2,0-0.2,0.1-0.3c0.1-0.1,0.3-0.2,0.5-0.2
		c0.2,0,0.4,0.1,0.5,0.2c0.1,0.1,0.1,0.1,0.1,0.3c0,0.3,0,0.8-0.1,1c0,0.1-0.2,0.2-0.5,0.2S334.6,128.2,334.6,128.1z M441.2,72.6
		c-3.1,0-5.5-2.5-5.5-5.5c0-3.1,2.5-5.5,5.5-5.5c3,0,5.5,2.5,5.5,5.5C446.7,70.1,444.2,72.6,441.2,72.6z M443.2,65.3
		c0-0.4-0.2-0.9-0.9-0.9h-1.5v1.2h1.2v1l-1.8-0.5v-1.7c-1,0-1.2,0.4-1.2,0.9v1c0,0.5,0.2,0.7,0.6,0.7v0.1c-0.4,0-0.6,0.2-0.6,0.7
		v0.9c0,0.4,0.2,0.9,0.9,0.9h1.5v-1.2h-1.2v-1l1.8,0.5v1.7c1,0,1.2-0.4,1.2-0.9v-1c0-0.5-0.2-0.7-0.6-0.7v-0.1
		c0.4,0,0.6-0.2,0.6-0.7V65.3z M519.2,227.9v7.2l-8.5,8.5l-8.5-8.5v-7.2l5.1,5.1v-18.9h6.7V233L519.2,227.9z M357.1,38.5l5.6,9.6
		h-11.1L357.1,38.5z M434.3,142v7.7h-4.7v52.6h-7.8v-52.6h-69.4v52.6h-7.8v-52.6h-4.7V142H434.3z M385.6,194.2
		c0,5.1-3.9,7.8-9.4,8.1h-17.1V199c0-3.1,2.3-5.1,6-5.1h11.4v-0.5l-11-5c-3.9-1.6-6.4-4.3-6.4-9c0-3.8,3.5-8.4,12-9.5l11-1.4
		l2.3,12.9c-1.4,1-3.7,2-7.8,2.3l3.3,1.8C383.2,187.4,385.6,190.1,385.6,194.2z M414.9,198c0,2.9-2.2,4.3-5,4.3h-12.5
		c-4,0-6.7-2-7.6-6.9l-4.8-27c6.7-0.9,9.4,1.7,10.3,6.3l3.7,19.3h11C413,193.9,414.9,195.6,414.9,198z M399.8,180.3
		c-0.9-1.4-1.3-7.3-1.3-10.8c0-1.6,0.3-2.1,0.9-2.9c1.7-1.6,3.8-2.1,5.7-2.1c2,0,3.7,0.9,5.2,2.1c0.8,0.7,0.8,1.7,0.8,3.1
		c0,3.5-0.1,9.1-1,10.6c-0.4,0.9-2,2.1-5.1,2.1C401.9,182.4,400.3,181.2,399.8,180.3z M304.9,119.4c0.3,0.3,0.3,0.8,0,1l-1.8,1.7
		c-0.1,0.2-0.3,0.3-0.5,0.3c-0.2,0-0.3-0.1-0.5-0.3c-5.3-5.4-8.3-12.7-8.3-20.3c0-7.6,3-14.7,8.3-20.3c0.2-0.2,0.3-0.3,0.5-0.3
		c0.3,0,0.4,0.1,0.5,0.3l1.8,1.7c0.3,0.3,0.3,0.8,0,1c-4.6,4.6-7.2,10.7-7.2,17.5C297.7,108.5,300.3,114.7,304.9,119.4z
		 M310.9,114.7c0.3,0.3,0.3,0.8,0,1l-1.7,1.8c-0.2,0.2-0.3,0.2-0.5,0.2c-0.3,0-0.4,0-0.5-0.2c-4.4-4.4-6.5-10-6.5-15.7
		c0-5.6,2.1-11.3,6.5-15.7c0.1-0.1,0.3-0.2,0.5-0.2c0.2,0,0.3,0.1,0.5,0.2l1.7,1.8c0.2,0.1,0.3,0.3,0.3,0.5c0,0.2-0.1,0.3-0.3,0.5
		c-3.4,3.4-5.3,8-5.3,12.9C305.6,106.7,307.5,111.3,310.9,114.7z M313.6,101.8c-0.1,3.1,1,6,3.4,8.3c0.2,0.1,0.3,0.3,0.3,0.5
		s-0.1,0.3-0.3,0.5l-1.7,1.7c-0.2,0.2-0.3,0.3-0.5,0.3c-0.2,0-0.4-0.1-0.5-0.3c-3-2.9-4.6-6.9-4.6-11.1c0-4.2,1.6-8.2,4.6-11.1
		c0.1-0.2,0.3-0.3,0.5-0.3c0.2,0,0.3,0.1,0.5,0.3l1.7,1.7c0.3,0.3,0.3,0.8,0,1C314.7,95.7,313.6,98.8,313.6,101.8z M330.4,102.1
		c0,2.8-1.7,5-4.1,5.7v34.7h-3.4v-34.7c-2.5-0.7-4.2-2.9-4.2-5.7c0-3.3,2.6-5.8,5.9-5.8C327.8,96.3,330.4,98.8,330.4,102.1z
		 M339.8,101.8c0,4.2-1.6,8.2-4.6,11.1c-0.1,0.2-0.3,0.3-0.5,0.3c-0.2,0-0.3-0.1-0.5-0.3l-1.7-1.7c-0.2-0.2-0.3-0.3-0.3-0.5
		s0.1-0.4,0.3-0.5c2.3-2.3,3.4-5.2,3.4-8.3c0-3-1.1-6.1-3.4-8.3c-0.3-0.3-0.3-0.7,0-1l1.7-1.7c0.2-0.2,0.3-0.3,0.5-0.3
		c0.2,0,0.4,0.1,0.5,0.3C338.2,93.7,339.8,97.6,339.8,101.8z M347.7,101.8c0,5.8-2.1,11.3-6.5,15.7c-0.1,0.2-0.3,0.2-0.5,0.2
		c-0.2,0-0.3,0-0.5-0.2l-1.7-1.8c-0.3-0.3-0.3-0.7,0-1c3.4-3.4,5.3-8,5.3-12.9c0-4.9-1.9-9.5-5.3-12.9c-0.2-0.2-0.3-0.3-0.3-0.5
		c0-0.2,0.1-0.4,0.3-0.5l1.7-1.8c0.2-0.1,0.3-0.2,0.5-0.2c0.3,0,0.4,0.1,0.5,0.2C345.6,90.5,347.7,96.3,347.7,101.8z M355.6,101.8
		c0,7.6-3,14.9-8.3,20.3c-0.2,0.2-0.3,0.3-0.5,0.3c-0.3,0-0.4-0.1-0.5-0.3l-1.8-1.7c-0.3-0.3-0.3-0.8,0-1c4.6-4.6,7.2-10.9,7.2-17.5
		c0-6.8-2.7-12.9-7.2-17.5c-0.3-0.3-0.3-0.7,0-1l1.8-1.7c0.1-0.2,0.3-0.3,0.5-0.3c0.2,0,0.3,0.1,0.5,0.3
		C352.6,87.2,355.6,94.2,355.6,101.8z M434,122.4c-1.5,0-2.7-0.6-3.8-1.4c0.1,0.1,0.1,0.3,0.1,0.4c0,0.3-0.1,0.6-0.1,1
		c1.7,0.7,3.2,1.8,4.5,3l3.2,3.1v3.9h-43V87.6h2.7l4.8,5.5l0.8,3.1c0.3-0.3,0.7-0.6,1.1-0.6c0.8,0,1.4,0.6,1.4,1.5
		c0,0.8-0.6,1.4-1.4,1.4c-0.2,0-0.4-0.1-0.6-0.1l1,4.2c0.8,0.1,1.3,0.6,1.3,1.4c0,0.5-0.3,1-0.6,1.2l0.6,2.4c0,0,0.3,0.3,0.6,0.8
		c0.1-0.7,0.7-1.1,1.3-1.1c0.8,0,1.4,0.6,1.4,1.5c0,0.8-0.6,1.4-1.3,1.4c0.6,0.8,1.3,1.6,2,2.4c0.1-0.6,0.6-1.2,1.4-1.2
		c0.8,0,1.4,0.6,1.4,1.4c0,0.8-0.6,1.4-1.4,1.4h-0.1c0.3,0.3,0.5,0.6,0.8,0.9c2,2.4,3.6,3.9,5.3,4.9c0.1-1.5,1.3-2.7,2.8-2.7
		c1.5,0,2.8,1.3,2.8,2.8c0,0.5-0.1,1-0.3,1.3c0.6,0.1,1.3,0.1,2,0.1c0.1-1.5,1.3-2.6,2.8-2.6c0.5,0,1,0.1,1.3,0.3
		c-0.3-0.7-0.4-1.4-0.4-2.2v-0.3c-0.3,0.1-0.6,0.1-0.9,0.1c-1.5,0-2.8-1.3-2.8-2.8s1.3-2.8,2.8-2.8c1.1,0,2.2,0.7,2.5,1.7
		c0.7-0.7,1.6-1.2,2.6-1.4c-0.9-0.5-1.5-1.5-1.5-2.5c0-1.6,1.3-2.8,2.8-2.8c1.5,0,2.8,1.2,2.8,2.8c0,1-0.6,2-1.5,2.5
		c2.5,0.6,4.3,2.8,4.3,5.5C439.6,119.8,437.1,122.4,434,122.4z M407.5,100.3c0-0.8,0.6-1.4,1.4-1.4c0.8,0,1.4,0.6,1.4,1.4
		c0,0.8-0.6,1.4-1.4,1.4C408.1,101.7,407.5,101.1,407.5,100.3z M410,104.7c0-0.8,0.6-1.4,1.4-1.4c0.8,0,1.4,0.6,1.4,1.4
		c0,0.8-0.6,1.4-1.4,1.4C410.6,106.1,410,105.4,410,104.7z M413.7,108.5c0-0.8,0.6-1.4,1.4-1.4c0.8,0,1.4,0.6,1.4,1.4
		c0,0.8-0.6,1.4-1.4,1.4C414.4,109.9,413.7,109.3,413.7,108.5z M413.7,115.7c0-0.8,0.6-1.4,1.4-1.4c0.8,0,1.4,0.6,1.4,1.4
		c0,0.8-0.6,1.4-1.4,1.4C414.4,117.1,413.7,116.5,413.7,115.7z M414.4,101.7c0-0.8,0.6-1.4,1.4-1.4c0.8,0,1.4,0.6,1.4,1.4
		s-0.6,1.4-1.4,1.4C415.1,103.1,414.4,102.5,414.4,101.7z M417.1,112.3c0-1.5,1.3-2.8,2.8-2.8c1.5,0,2.8,1.3,2.8,2.8
		c0,1.5-1.3,2.8-2.8,2.8C418.3,115.1,417.1,113.8,417.1,112.3z M418.7,104.7c0-0.8,0.6-1.4,1.4-1.4c0.8,0,1.4,0.6,1.4,1.4
		c0,0.8-0.6,1.4-1.4,1.4C419.3,106.1,418.7,105.4,418.7,104.7z M422.5,108.5c0-0.8,0.6-1.5,1.4-1.5c0.8,0,1.4,0.6,1.4,1.5
		c0,0.8-0.6,1.4-1.4,1.4C423.2,109.9,422.5,109.3,422.5,108.5z M426.7,105.3c0-0.8,0.6-1.4,1.4-1.4c0.8,0,1.4,0.6,1.4,1.4
		c0,0.8-0.6,1.4-1.4,1.4C427.2,106.7,426.7,106.1,426.7,105.3z M451.1,114.3c0.7-2.5,2.5-3.3,5.5-3.3h18.6c1.2,0,2.1,0.6,2.1,1.7
		c0,1.2-0.8,1.9-2.1,2l-10,0.3c-0.7,0-1,0.3-0.9,0.7l2.3,31.7c0.1,1-0.2,1.8-1.3,1.8h-1.5c-1.2,0-1.4-1-1.5-1.6l-1.9-17
		c0-0.3-0.3-0.4-0.8-0.4s-0.9,0.1-0.9,0.5l-1.9,16.9c-0.1,0.6-0.3,1.5-1.5,1.5h-1.5c-0.9,0-1.3-0.7-1.3-1.5l2.1-30.2
		c0-0.1-0.1-0.3-0.3-0.3c-0.2,0-0.3,0.1-0.4,0.3l-2.7,10.7c-0.2,0.7-0.8,1.5-1.7,1.5c-1.2,0-2-1.1-1.7-2.1L451.1,114.3z M456.7,102
		l-0.4,0.9v0.7h7.4v-1l0.9-1.4l-0.1-0.6L456.7,102z M463.7,104.8l1.9,0.6v0.4h-2.2c-0.1,1.1-0.3,2.2-0.5,2.7
		c-0.3,0.5-1.2,1.1-2.9,1.1c-1.7,0-2.7-0.6-2.9-1.1c-0.3-0.5-0.5-2.1-0.6-3.7H463.7z M460.5,116.1c0,0.6,0.4,0.9,0.7,1.1
		c0,0,0.1,0.1,0.2,0.1c0.1,0,0.2-0.1,0.2-0.1c0.4-0.2,0.8-0.4,0.8-1.1v-0.8c-0.3-0.1-0.7-0.3-1-0.3c-0.3,0-0.7,0.1-0.9,0.3V116.1z
		 M332.5,205.9v7.4h-30.8v-7.4c0.7-0.7,2-1.8,3.9-1.8c2,0,2.9,1.8,5.3,1.8c2.9,0,3.7-1.7,6.1-1.7c2.4,0,3.2,1.7,5.7,1.7
		c2.4,0,3.3-1.8,5.7-1.8C330.3,204.1,331.8,205.2,332.5,205.9z M329.1,188.6v13.3l-0.4,0c-2.5,0-3.3,1.8-5.7,1.8
		c-0.8,0-1.4-0.2-2-0.5v-6.9h-7.6v6.9c-0.6,0.3-1.3,0.5-2.3,0.5c-2.4,0-3.4-1.8-5.3-1.8c-0.2,0-0.4,0-0.5,0v-13.3l12-4.3
		L329.1,188.6z M377.6,83.1V90c0,0.3-0.2,0.5-0.5,0.5h-6.2l1.5-1.7h-1.1l-5.5,5.3l0.8-3.6h-2.4c-0.3,0-0.5-0.2-0.5-0.5v-6.9
		c0-0.3,0.3-0.5,0.5-0.5H377C377.4,82.6,377.6,82.8,377.6,83.1z M378.9,81.8c0-0.3-0.2-0.5-0.5-0.5h-11.6v-5.5
		c0-0.4,0.4-0.8,0.8-0.8h18.2c0.4,0,0.8,0.4,0.8,0.8v9.8c0,0.4-0.4,0.7-0.8,0.7h-1.9l0.9,5.2l-3.8-5.2h-2V81.8z M492.5,66.5h-4.1
		V49.1h-17v17.4h-4.1V46.5l12.6-4.6l12.6,4.6V66.5z M482.7,62.6l-0.3,3.5c0,0.1-0.1,0.3-0.3,0.3h-1.2c-0.1,0-0.1,0-0.2-0.1l0.2-3.2
		h0.4c0.3,0,0.5-0.1,0.4-0.4l-0.2-3c0-0.4-0.2-0.6-0.6-0.7c-0.6-0.1-1.4-0.1-1.4-0.1s-0.7,0-1.4,0.1c-0.3,0.1-0.5,0.3-0.5,0.7
		l-0.2,3c0,0.3,0.1,0.4,0.4,0.4h0.4l0.2,3.2H477c-0.2,0-0.3-0.1-0.3-0.3l-0.5-6.4l-0.8-0.3c-0.3-0.1-0.5-0.3-0.5-0.7l0.4-4.1
		c0.1-0.7,0.6-1.1,1.8-1.1h5.8c0.4,0,0.6,0.2,0.6,0.6c0,0.3-0.2,0.5-0.4,0.6v0c0.2,0,0.5,0.2,0.5,0.4l0.8,3.2
		c0.2,0.9,0.3,1.6,0.3,2.4c0,1-0.3,1.3-1.1,1.5L482.7,62.6z M478.7,52.9c0.1-0.2,0.2-1.2,0.2-1.7c0-0.2,0-0.3-0.1-0.5
		c-0.2-0.2-0.6-0.3-0.9-0.3c-0.3,0-0.6,0.1-0.8,0.3c-0.1,0.1-0.1,0.2-0.1,0.5c0,0.5,0,1.4,0.2,1.7c0.1,0.1,0.3,0.3,0.8,0.3
		C478.3,53.2,478.6,53,478.7,52.9z M480.2,58.4c0.1-0.2,0.1-0.9,0.1-1.3c0-0.2,0-0.3-0.1-0.4c-0.2-0.1-0.5-0.2-0.7-0.2
		c-0.2,0-0.5,0.1-0.7,0.2c-0.1,0-0.1,0.2-0.1,0.4c0,0.4,0,1,0.1,1.3c0.1,0.1,0.3,0.2,0.7,0.2C479.8,58.6,480.1,58.5,480.2,58.4z
		 M482.2,52.9c0.1-0.3,0.1-1.1,0.1-1.6c0-0.3,0-0.4-0.1-0.5c-0.3-0.2-0.6-0.3-0.9-0.3c-0.3,0-0.6,0.1-0.9,0.3
		c-0.1,0.1-0.2,0.2-0.2,0.5c0,0.5,0.1,1.4,0.2,1.7c0.1,0.1,0.3,0.3,0.8,0.3C481.9,53.2,482.2,53,482.2,52.9z M278.4,168.9h-6l8.7-15
		h6L278.4,168.9z M291,168.9h-6l8.7-15h6L291,168.9z M303.1,168.9h-6l8.7-15h6L303.1,168.9z M403.5,68.9l2.9,10.8h-1.5
		c-0.5,0-0.9-0.3-1-0.7l-2.5-8.9c0-0.2-0.3-0.2-0.3,0l-1,4.3c-0.1,0.2-0.2,0.5-0.4,0.7l-4.3,3.9l-0.7-0.7c-0.2-0.2-0.3-0.5-0.3-0.8
		c0-0.3,0.1-0.5,0.3-0.7l3.2-3.1l0.9-4.7l1.1-6.9c0.2-1.1,1-2.2,2.4-2.2c1.4,0,2.3,0.8,2.3,2.2c0,0.2,0,0.5,0,0.7l-0.5,2.9h2.5
		c0.6,0,1,0.5,1,1c0,0.6-0.5,1-1,1h-2.9L403.5,68.9z M401.5,58.7c-0.2-0.4-0.3-1.8-0.3-2.6c0-0.4,0.1-0.6,0.2-0.7
		c0.4-0.4,1-0.5,1.4-0.5c0.5,0,0.9,0.2,1.2,0.5c0.2,0.1,0.2,0.4,0.2,0.7c0,0.8,0,2.2-0.2,2.6c-0.1,0.2-0.5,0.5-1.2,0.5
		C402,59.2,401.6,58.9,401.5,58.7z M419.8,73c0,3.7-3,6.8-6.7,6.8c-3.8,0-6.9-3.1-6.9-6.8c0-2.3,1.1-4.3,2.8-5.5l-0.6-2.2
		c0-0.2-0.1-0.4-0.1-0.6c0-0.4,0.1-0.8,0.5-1.2l2.5-2.4c0.3-0.4,0.6-0.6,1.2-0.6c0.2,0,0.5,0,0.7,0.1l1.7,0.2
		c0.7,0.1,1.2,0.6,1.3,1.4l0.6,4.3c-1.2-0.7-2.4-1.1-3.8-1.1c-0.3,0-0.8,0-1,0.1l-0.2-1.6c0-0.2-0.2-0.3-0.3-0.1l-1.1,1.1
		c-0.1,0.1-0.2,0.2-0.1,0.4l0.3,1.4c0.7-0.3,1.6-0.5,2.4-0.5C416.7,66.1,419.8,69.2,419.8,73z M417.9,73.1c0-2.7-2.2-4.9-4.9-4.9
		c-0.7,0-1.4,0.2-1.9,0.4l0,0.3c0,0.5-0.2,0.9-0.9,0.9c-0.2,0-0.4-0.1-0.6-0.2c-1,0.9-1.5,2.2-1.5,3.6c0,2.7,2.2,4.9,4.9,4.9
		S417.9,75.8,417.9,73.1z M413.1,59.3c-0.2-0.4-0.3-1.8-0.3-2.6c0-0.4,0-0.5,0.2-0.7c0.5-0.4,0.9-0.5,1.4-0.5c0.5,0,1,0.2,1.3,0.5
		c0.1,0.1,0.1,0.4,0.1,0.8c0,0.8-0.1,2.2-0.3,2.6c-0.1,0.2-0.5,0.5-1.2,0.5C413.6,59.8,413.2,59.5,413.1,59.3z M424.3,76.8
		c0,0.2-0.1,0.4-0.3,0.4l-1.4,0.3c-0.4,0.1-0.6,0-0.7-0.5l-1.2-4.9c-0.2-1.1-0.5-2.1-1.2-3.1h1.9c0.9,0,1.7,0.5,1.7,1.3L424.3,76.8z
		 M368.6,105h4v8.5l-2.7,8.4h2.7v6.9h-10.4v-6.9L368.6,105z M386.8,128.8h-3.9v6H376v-12.3l1.8-9.5h5.1v8.9h3.9V128.8z M490.1,105.2
		c0.2,0.1,0.2,0.4,0.2,0.5c0,0.3-0.2,0.6-0.6,0.6c-0.3,0-0.5-0.1-0.7-0.4l-1.6-1.8c-0.3-0.3-0.6-1-0.6-1.5h-0.1v3.9l1.6,3.4
		c0.1,0.1,0.1,0.3,0.1,0.6l0.4,3.9H488c-0.4,0-0.8-0.3-0.9-0.7l-0.4-3l-1.6-3.2c0-0.1-0.1-0.1-0.1-0.1c-0.1,0-0.2,0-0.2,0.1
		l-0.7,3.1c0,0.1-0.2,0.4-0.3,0.5l-3,2.7l-0.3-0.3c-0.2-0.1-0.3-0.4-0.3-0.7c0-0.2,0.1-0.4,0.2-0.6l2.2-2.1l0.7-3.5v-3.2
		c0-0.3,0-0.5,0-0.7h-0.1l-0.7,1l-0.8,2.4c-0.1,0.3-0.3,0.6-0.7,0.6c-0.3,0-0.6-0.2-0.6-0.6c0-0.1,0-0.3,0.1-0.4l0.7-2.3
		c0-0.1,0.1-0.3,0.2-0.4l1.1-1.8c0.3-0.5,0.9-0.9,2.4-0.9c1.6,0,2.3,0.3,2.5,0.9l0.8,2.1L490.1,105.2z M484.2,99.4
		c-0.1-0.3-0.2-1.3-0.2-1.9c0-0.3,0-0.4,0.2-0.5c0.3-0.3,0.6-0.4,1-0.4c0.3,0,0.7,0.2,0.9,0.4c0.2,0.1,0.2,0.3,0.2,0.6
		c0,0.6,0,1.6-0.2,1.8c-0.1,0.2-0.3,0.3-0.9,0.3C484.5,99.8,484.2,99.6,484.2,99.4z M493,111.9c0,0.4-0.4,0.8-0.9,0.8
		c-0.4,0-0.9-0.4-0.9-0.8c0-0.5,0.4-0.9,0.9-0.9C492.6,111,493,111.4,493,111.9z M496.4,109.9c0,0.4-0.4,0.8-0.9,0.8
		c-0.4,0-0.9-0.4-0.9-0.8s0.4-0.9,0.9-0.9C496,109.1,496.4,109.4,496.4,109.9z M507,89.7v9.9h-3.7v-6.7h-4.9v6.7h-3.7v-9.9l6.1-2.2
		L507,89.7z M499.4,107.9c0,0.4-0.4,0.8-0.9,0.8c-0.4,0-0.9-0.4-0.9-0.8s0.4-0.9,0.9-0.9C499,107,499.4,107.4,499.4,107.9z
		 M501.4,101.3c0,0.4-0.4,0.8-0.9,0.8c-0.4,0-0.9-0.4-0.9-0.8c0-0.5,0.4-0.9,0.9-0.9C501,100.4,501.4,100.8,501.4,101.3z
		 M501.4,104.9c0,0.4-0.4,0.8-0.9,0.8c-0.4,0-0.9-0.4-0.9-0.8s0.4-0.9,0.9-0.9C501,104,501.4,104.4,501.4,104.9z M718.5,130.6
		l18.3,19.3v0.8h-46.8v-0.8l17.4-19.3H718.5z M696.4,111.4c0-2.6,2.2-4.7,4.8-4.7c1.4,0,2.7,0.7,3.6,1.7c1.1-1.1,2.7-1.7,4.3-1.7
		c1.9,0,3.7,0.9,4.9,2.3c0.3-0.3,0.8-0.7,1.3-0.9c-0.3-0.3-0.4-0.6-0.4-0.9c0-0.8,0.7-1.5,1.5-1.5c0.8,0,1.5,0.7,1.5,1.5
		c0,0.2-0.1,0.4-0.1,0.5c2.3,0.3,4.2,2.3,4.3,4.6c0.7,0.5,1.3,1.1,1.8,1.8c0.1,0,0.3-0.1,0.5-0.1c0.7,0,1.5,0.7,1.5,1.5
		c0,0.6-0.5,1.1-1,1.3c0.1,0.3,0.1,0.6,0.1,0.9c0,3.6-3,6.8-6.8,6.8h-0.5c-0.7,1.9-2.5,3.2-4.5,3.2c-2.6,0-4.8-2.1-4.8-4.8
		c0-1.5,0.7-2.8,1.8-3.7c-0.3,0.1-0.6,0.1-0.9,0.1c-2.5,0-4.7-1.5-5.8-3.6c-0.6,0.3-1.3,0.5-2.1,0.5
		C698.6,116.2,696.4,114,696.4,111.4z M720.2,127.2c0.7,0,1.5,0.8,1.5,1.5c0,0.9-0.7,1.5-1.5,1.5c-0.9,0-1.5-0.7-1.5-1.5
		C718.7,128,719.3,127.2,720.2,127.2z M722.8,107.1c0-0.8,0.7-1.5,1.5-1.5c0.7,0,1.5,0.7,1.5,1.5c0,0.8-0.8,1.5-1.5,1.5
		C723.5,108.6,722.8,107.9,722.8,107.1z M725.8,124.4c0,0.9-0.8,1.5-1.5,1.5c-0.9,0-1.5-0.7-1.5-1.5c0-0.7,0.7-1.5,1.5-1.5
		C725,122.9,725.8,123.7,725.8,124.4z M725.8,132.9c0,0.9-0.8,1.5-1.5,1.5c-0.9,0-1.5-0.7-1.5-1.5c0-0.7,0.6-1.5,1.5-1.5
		C725,131.4,725.8,132.2,725.8,132.9z M726.6,111.2c0-0.8,0.8-1.5,1.6-1.5c0.7,0,1.5,0.7,1.5,1.5c0,0.8-0.8,1.5-1.5,1.5
		C727.4,112.7,726.6,112,726.6,111.2z M726.6,120.1c0-0.7,0.7-1.5,1.5-1.5c0.7,0,1.5,0.8,1.5,1.5c0,0.9-0.8,1.5-1.5,1.5
		C727.3,121.7,726.6,121,726.6,120.1z M726.6,128.6c0-0.7,0.7-1.5,1.5-1.5c0.7,0,1.5,0.8,1.5,1.5c0,0.9-0.8,1.5-1.5,1.5
		C727.3,130.2,726.6,129.5,726.6,128.6z M726.6,137c0-0.8,0.8-1.5,1.5-1.5s1.5,0.7,1.5,1.5c0,0.8-0.8,1.5-1.5,1.5
		S726.6,137.8,726.6,137z M730.7,107.1c0-0.8,0.8-1.5,1.6-1.5c0.8,0,1.5,0.7,1.5,1.5c0,0.8-0.7,1.5-1.5,1.5
		C731.5,108.6,730.7,107.9,730.7,107.1z M730.7,115.5c0-0.8,0.8-1.5,1.6-1.5c0.8,0,1.5,0.7,1.5,1.5c0,0.8-0.7,1.5-1.5,1.5
		C731.5,117,730.7,116.3,730.7,115.5z M730.7,124.4c0-0.7,0.7-1.5,1.5-1.5c0.7,0,1.5,0.8,1.5,1.5c0,0.9-0.8,1.5-1.5,1.5
		C731.4,125.9,730.7,125.3,730.7,124.4z M730.7,132.9c0-0.7,0.7-1.5,1.5-1.5c0.7,0,1.5,0.8,1.5,1.5c0,0.9-0.8,1.5-1.5,1.5
		C731.4,134.4,730.7,133.8,730.7,132.9z M730.7,141.3c0-0.7,0.8-1.5,1.6-1.5c0.8,0,1.5,0.7,1.5,1.5c0,0.8-0.7,1.5-1.5,1.5
		C731.5,142.8,730.7,142.1,730.7,141.3z M734.6,111.2c0-0.8,0.7-1.5,1.5-1.5c0.8,0,1.5,0.7,1.5,1.5c0,0.8-0.7,1.5-1.5,1.5
		C735.3,112.7,734.6,112,734.6,111.2z M737.7,120.1c0,0.9-0.7,1.5-1.5,1.5c-0.9,0-1.6-0.7-1.6-1.5c0-0.7,0.7-1.5,1.6-1.5
		C736.9,118.7,737.7,119.5,737.7,120.1z M737.7,128.6c0,0.9-0.7,1.5-1.5,1.5c-0.9,0-1.6-0.7-1.6-1.5c0-0.7,0.7-1.5,1.6-1.5
		C736.9,127.2,737.7,128,737.7,128.6z M737.7,137c0,0.8-0.7,1.5-1.5,1.5c-0.8,0-1.6-0.7-1.6-1.5c0-0.8,0.8-1.5,1.6-1.5
		C737,135.5,737.7,136.2,737.7,137z M737.7,145.5c0,0.8-0.7,1.5-1.5,1.5c-0.8,0-1.6-0.7-1.6-1.5c0-0.8,0.8-1.5,1.6-1.5
		C737,144,737.7,144.7,737.7,145.5z M634.5,207.6c-6.9,0-12.4-5.6-12.4-12.4c0-6.9,5.6-12.4,12.4-12.4c6.8,0,12.4,5.6,12.4,12.4
		C646.9,202.1,641.3,207.6,634.5,207.6z M634.8,192v-2.6h-3.2c-1.2,0-2.2,0.9-2.2,1.9v1.9l2.2,0l0.4-1.1H634.8z M629.4,196.9v1.9
		c0,1,0.8,1.9,2.2,1.9h3.2v-2.6H632l-0.4-1.1L629.4,196.9z M638.8,191.3c0-1.1-0.2-1.9-2.6-1.9v4.3h-2.4v2.6h2.4v4.3
		c2.1,0,2.6-0.7,2.6-1.9v-2.2c0-0.9-0.5-1.4-1.1-1.6c0.6-0.2,1.1-0.7,1.1-1.6V191.3z M551.4,89.4l2.4,16.3h10l2.4-16.3h1.9
		l-2.6,18.1H552l-2.6-18.1H551.4z M563.8,96.4l-1.1,8H555l-1.1-8H563.8z M558.8,91.2c-1.9,0-3.6-1.6-3.6-3.5c0-0.4,0.2-1.2,0.3-1.5
		l2.2-5.1h2.1l2.2,5.1c0.2,0.4,0.3,0.9,0.3,1.5C562.3,89.6,560.7,91.2,558.8,91.2z M558.2,87c-0.7,0-1.3,0.6-1.3,1.3
		c0,0.7,0.6,1.3,1.3,1.3s1.3-0.6,1.3-1.3C559.5,87.6,558.9,87,558.2,87z M515.4,145.3c4.8,0,8.7,3.9,8.7,8.6c0,1.7-0.4,3.2-1.3,4.5
		l-7.4,11.4l-7.4-11.4c-0.8-1.3-1.3-2.8-1.3-4.5C506.8,149.2,510.6,145.3,515.4,145.3z M515.4,149.6c-1.9,0-3.6,1.7-3.6,3.6
		c0,1.9,1.7,3.5,3.6,3.5c1.9,0,3.5-1.6,3.5-3.5C518.9,151.3,517.4,149.6,515.4,149.6z M606.2,46.1h1.6v8.1c0,0.8-0.4,1.1-1.1,1.1
		h-11.4c-0.4,0-0.9-0.4-0.9-1.1v-20c0-1.2,0.6-1.6,1.6-1.6h10.2c1.3,0,1.7,0.5,1.7,1.6v1.4h-1.7h-0.4h-9.5c-0.2,0-0.4,0.2-0.4,0.5
		v15c0,0.2,0.2,0.4,0.4,0.4h9.5c0.2,0,0.5-0.2,0.5-0.4V46.1z M598.9,34.1c0,0.2,0.2,0.4,0.4,0.4h3.4c0.2,0,0.4-0.2,0.4-0.4
		c0-0.2-0.2-0.4-0.4-0.4h-3.4C599.1,33.6,598.9,33.8,598.9,34.1z M615.7,37.7V44c0,0.5-0.4,0.9-0.9,0.9h-9l-3.9,3.7l0.8-3.7h-2.5
		c-0.5,0-0.9-0.4-0.9-0.9v-6.2c0-0.5,0.4-0.9,0.9-0.9h14.7C615.3,36.8,615.7,37.2,615.7,37.7z M602,53.4c0-0.6-0.5-1-1.1-1
		c-0.6,0-1,0.5-1,1c0,0.6,0.5,1.1,1,1.1C601.6,54.4,602,54,602,53.4z M576.5,70.9l3,8.1h-1.2c-0.3,0-0.6-0.3-0.8-0.6l-2.6-6.4
		c-0.1-0.2-0.4-0.2-0.4,0.1v3.1c0,0.3-0.3,0.6-0.6,0.6h-4.3V75c0-0.3,0.3-0.6,0.7-0.6h2.6v-3.3c0-0.3,0-0.5,0.1-0.7l0.8-4.6h-1.2
		l-0.6,3c-0.1,0.4-0.4,0.6-0.7,0.6c-0.4,0-0.8-0.4-0.6-0.8l0.6-3.1c0.1-0.6,0.7-1,1.5-1h2.9c1.1,0,1.8,0.7,1.6,2.3L576.5,70.9z
		 M575.1,63.6c-0.2-0.3-0.2-1.3-0.2-2c0-0.3,0.1-0.4,0.2-0.5c0.3-0.3,0.6-0.4,1-0.4c0.4,0,0.7,0.1,1,0.4c0.1,0.1,0.1,0.3,0.1,0.6
		c0,0.6-0.1,1.6-0.2,1.9c-0.1,0.1-0.4,0.3-0.9,0.3C575.5,63.9,575.2,63.7,575.1,63.6z M583.7,69.5l3.2,9.5h-1.1
		c-0.4,0-0.7-0.3-0.8-0.6l-1.6-4.3l-1-0.2l-0.2,1.2c0,0.4-0.3,0.6-0.6,0.6h-2.7l-0.4-1.3h2.1l0.1-0.8l-1.1-0.2
		c-0.2-0.1-0.4-0.2-0.3-0.5l0.7-3.3l0.7-3.9h-0.9l-0.6,3c-0.1,0.4-0.4,0.6-0.7,0.6c-0.4,0-0.8-0.4-0.7-0.8l0.6-3.1
		c0.1-0.6,0.8-1,1.6-1h2.5c1.1,0,1.9,0.7,1.6,2.3l-0.3,1.3l2.6,0.7c0.3,0.1,0.5,0.4,0.5,0.7c0,0.4-0.3,0.7-0.6,0.7
		c-0.2,0-0.4-0.1-0.5-0.1L583.7,69.5z M581.8,63.6c-0.2-0.3-0.2-1.4-0.2-2c0-0.3,0.1-0.4,0.2-0.5c0.3-0.3,0.6-0.4,1-0.4
		c0.4,0,0.7,0.1,1,0.4c0.1,0.1,0.1,0.3,0.1,0.6c0,0.6,0,1.7-0.2,2c-0.1,0.2-0.4,0.4-0.9,0.4S581.9,63.8,581.8,63.6z M535.8,116.9v23
		h-8.1l2-1.6v-8.8h-2.4c-0.6,0-0.9-0.2-1.2-0.9l-0.3-0.7l-0.7,2.5l3.2,7.8h-1.2c-0.3,0-0.6-0.2-0.8-0.5l-2.7-6.1
		c0-0.1-0.1-0.1-0.2-0.1c-0.1,0-0.2,0.1-0.2,0.2v2.9c0,0.4-0.3,0.6-0.6,0.6h-4.1v3l-2.1,1.6h-3.9v-23H535.8z M529.8,128.2v-9.2
		h-11.1v15h3v-3.1c0-0.3,0-0.5,0.1-0.8l1.2-4.1h-1.2l-0.9,2.7c-0.1,0.4-0.4,0.6-0.7,0.6c-0.4,0-0.6-0.4-0.5-0.9l0.8-2.8
		c0.2-0.6,0.6-1,1.4-1h2.9c0.7,0,1.2,0.3,1.5,0.9l1.2,2.7H529.8z M526.4,121.8c0,0.6-0.1,1.5-0.2,1.8c-0.1,0.1-0.4,0.3-0.9,0.3
		c-0.5,0-0.8-0.2-0.9-0.3c-0.1-0.3-0.2-1.3-0.2-1.8c0-0.3,0.1-0.4,0.2-0.5c0.3-0.3,0.6-0.4,0.9-0.4c0.4,0,0.7,0.1,1,0.4
		C526.4,121.4,526.4,121.6,526.4,121.8z M620.2,61.1c0.1-0.1,0.1-0.1,0.2-0.1c0,0,0.1,0,0.2,0.1c2.3,2.3,5.2,3.5,8,3.5
		c2.9,0,5.8-1.2,8-3.4c0.1-0.1,0.1-0.1,0.2-0.1c0.1,0,0.2,0.1,0.2,0.1l0.7,0.7c0.1,0.1,0.1,0.2,0.1,0.2c0,0.1,0,0.1-0.1,0.2
		c-2.7,2.7-5.9,3.9-9.1,3.9c-3.3,0-6.5-1.3-9.1-3.9c0-0.1-0.1-0.1-0.1-0.2c0-0.1,0-0.2,0.1-0.2L620.2,61.1z M622.6,58.7
		c0.1-0.1,0.1-0.1,0.2-0.1c0.1,0,0.1,0,0.2,0.1c1.6,1.6,3.6,2.4,5.6,2.4c2,0,4-0.8,5.6-2.3c0.1-0.1,0.1-0.2,0.2-0.2
		c0.1,0,0.1,0.1,0.2,0.2l0.7,0.6c0.2,0.2,0.1,0.3,0,0.4c-1.9,1.9-4.3,2.9-6.6,2.9c-2.4,0-4.8-1-6.7-2.9c0-0.1-0.1-0.1-0.1-0.2
		c0-0.1,0-0.1,0.1-0.2L622.6,58.7z M625.1,56.2c0-0.1,0.1-0.1,0.2-0.1c0,0,0.1,0,0.2,0.1c0.9,0.9,2.1,1.3,3.2,1.3
		c1.1,0,2.2-0.5,3.1-1.3c0.1-0.1,0.1-0.1,0.2-0.1c0.1,0,0.2,0,0.2,0.1l0.7,0.7c0.1,0.1,0.1,0.3,0,0.4c-1.2,1.2-2.7,1.8-4.2,1.8
		c-1.5,0-3-0.6-4.2-1.8c-0.1-0.1-0.1-0.2-0.1-0.2c0-0.1,0-0.1,0.1-0.2L625.1,56.2z M628.6,55.6c0.7,0,1.4-0.3,2-0.9l-2-2l-2,2
		C627.3,55.3,627.9,55.6,628.6,55.6z M600,183.2h1.6v1.7H600v1c0,0.9,0.5,1.4,2.6,1.4c3,0,4.5-1.2,4.5-4.2c0-3.4-2-4.9-5.6-4.9
		c-3.9,0-6.1,1.7-6.1,5.9c0,4.3,2.5,6.3,6.9,6.3c1.7,0,3.3-0.4,4.5-1v1.5c-1.3,0.5-3,0.9-4.6,0.9c-5,0-8.5-2.3-8.5-7.8
		c0-4.8,3.1-7.3,7.8-7.3c4.4,0,7.4,2.3,7.4,6.3c0,3.5-2.5,5.8-6.5,5.8c-3.1,0-4.5-1.3-4.5-3v-0.7C597.8,184.1,598.5,183.2,600,183.2
		z M602.4,186.5v-4.7H599v-1.7h3.6c1.5,0,2.1,0.6,2.1,1.8v2.7C604.6,185.8,604.1,186.5,602.4,186.5z M612.9,204.9l3.7,3.7l-2.1,2.1
		l-3.7-3.7l-3.7,3.7l-2.1-2.1l3.7-3.7l-3.7-3.7l2.1-2.1l3.7,3.7l3.7-3.7l2.1,2.1L612.9,204.9z M682.7,139.7c0,0.5-0.4,0.9-0.9,0.9
		h-1.8h-6.4v-2.9v-0.8l1.5-3.7l0.9-0.3h0.1l0.8,0.3l2.8,5.5c0.2,0.4,0.3,0.4,0.6,0.4h0.3l-0.1,0.4h-0.2c-0.5,0-0.7-0.1-1-0.7
		l-2.7-5.2l-0.5-0.2l-0.6,0.2l-1,2.5l0.9-0.4l0.9,0.6l1-0.2l1.7,3.3c0.2,0.5,0.5,0.7,1.3,0.7h0.1h1.7c0.3,0,0.5-0.2,0.5-0.5
		c0-0.3-0.2-0.5-0.5-0.5c-0.3,0-0.5,0.2-0.5,0.5h-0.4c0-0.5,0.4-0.9,0.9-0.9h0c-0.1-0.2-0.2-0.3-0.5-0.3c-0.3,0-0.5,0.2-0.5,0.5
		h-0.4c0-0.5,0.4-0.9,0.9-0.9c0.5,0,0.9,0.3,0.9,0.9C682.5,139.1,682.7,139.4,682.7,139.7z M679.7,138l-1.1-2.2h0.2l0.6,0.6l0.7,1.4
		c0.1,0.1,0.1,0.1,0.2,0.1h0.2l-0.1,0.4h-0.1C679.9,138.4,679.9,138.3,679.7,138z M679.1,134.1l1.3-0.7l-1.3-0.7l0.2-0.4l1.3,0.8
		l0-1.5h0.5l0,1.5l1.2-0.8l0.2,0.4l-1.3,0.7l1.3,0.7l-0.2,0.4l-1.2-0.8l0,1.5h-0.5l0-1.5l-1.3,0.8L679.1,134.1z M671.5,74
		c0,0.5-0.3,0.7-0.8,0.7h-3l-0.5,7.3c0,0.3-0.2,0.6-0.7,0.6H664c-0.4,0-0.7-0.3-0.7-0.6l-0.5-7.3h-2.7c-0.3,0-0.8-0.3-0.6-0.9
		l3.1-10.8v-0.1c0-0.2-0.1-0.3-0.2-0.3c-0.1,0-0.3,0.1-0.3,0.2l-2.5,6.2c-0.2,0.5-0.6,0.8-1.1,0.8c-0.5,0-0.9-0.4-1.1-0.9l-1.8-6.8
		c0-0.1-0.1-0.2-0.3-0.2c-0.1,0-0.2,0.1-0.2,0.2l0.6,7.9l-0.9,12c0,0.3-0.2,0.6-0.7,0.6h-3.5c-0.4,0-0.7-0.3-0.7-0.6L649,70.8
		l-1.7-1.2c-0.6-0.5-0.7-0.8-0.7-1.4l0.7-8.1c0.1-1.1,0.6-1.6,1.4-1.7c1.4-0.3,3-0.4,3.4-0.4c0.5,0,1.9,0,3.8,0.4
		c0.8,0.2,1.1,0.6,1.4,1.7l1.3,5.6h0l2.1-5.7c0.4-1.1,0.7-1.4,1.6-1.6c0.8-0.2,2-0.2,2.7-0.2c0.7,0,1.7,0,2.8,0.2
		c0.8,0.1,1.3,0.6,1.5,1.7l1.6,7.8c0,0.2,0.1,0.4,0.1,0.5c0,0.2,0,0.3-0.3,0.6l-0.5,0.5l0.8,3.4C671.5,73.5,671.5,73.8,671.5,74z
		 M654,56.6c0.2-0.5,0.4-2.3,0.4-3.3c0-0.5-0.1-0.7-0.3-0.9c-0.5-0.4-1-0.6-1.6-0.6c-0.6,0-1.2,0.2-1.7,0.6c-0.2,0.1-0.2,0.5-0.2,1
		c0,1,0.1,2.7,0.3,3.2c0.1,0.3,0.6,0.6,1.5,0.6C653.3,57.2,653.9,56.9,654,56.6z M666.8,56.6c0.2-0.5,0.4-2.3,0.4-3.3
		c0-0.5-0.1-0.7-0.3-0.9c-0.5-0.4-1-0.6-1.6-0.6c-0.6,0-1.2,0.2-1.7,0.6c-0.2,0.1-0.2,0.5-0.2,1c0,1,0.1,2.7,0.3,3.2
		c0.1,0.3,0.6,0.6,1.5,0.6C666.1,57.2,666.7,56.9,666.8,56.6z M734.6,220.2v3.3H704v-5.1c0-4.2,2.9-6.4,6.2-6.4c3.2,0,5,2.2,5,4.4
		c0,2.1-1.4,3.1-2.5,3.1c-0.8,0-1.5-0.3-1.7-0.5v-0.3c0.3-0.1,0.5-0.5,0.5-1.1c0-0.7-0.5-1.1-1.1-1.1c-0.6,0-1.3,0.5-1.3,1.7
		c0,1.5,1.7,2.5,3.6,2.5c3.4,0,5.5-5.4,8.8-5.4c2.1,0,3,1.6,3,2.6c0,1.2-0.7,2.2-1.5,2.2c-0.3,0-0.6-0.1-0.7-0.2v-0.2
		c0.1-0.1,0.1-0.2,0.1-0.4c0-0.2-0.2-0.6-0.6-0.6c-0.4,0-0.8,0.3-0.8,0.9c0,0.9,0.8,1.6,1.9,1.6c1.7,0,2.7-3,6.8-3
		C732.5,218.4,734.4,220,734.6,220.2z M723.6,191.2c-3.1,0-5.5-2.5-5.5-5.5c0-3.1,2.5-5.5,5.5-5.5c3,0,5.5,2.5,5.5,5.5
		C729.1,188.7,726.7,191.2,723.6,191.2z M742.4,79l-5,1.8l-5-1.8v-7.4l5-1.8l5,1.8V79z M665.3,159.2l-42.9,15.5l-42.9-15.5V96.3
		l42.9-15.5l42.9,15.5V159.2z M622.3,112.7c-8.4,0-15,6.7-15,15s6.7,15,15,15c8.4,0,15-6.7,15-15S630.7,112.7,622.3,112.7z
		 M679.5,79.7v-5.2c0-2.4,1-4.1,4.8-4.1h7.8v4.9h-7.3v8.5C680.7,83.8,679.5,82.3,679.5,79.7z M687.5,87.1v-8.3
		c4.3,0,5.3,1.5,5.3,4.1v5c0,2.4-1.4,4.1-4.6,4.1h-7.8v-4.9H687.5z M701.4,92h-1.9c-3.2,0-4.6-1.7-4.6-4.1V74.4c0-2.6,1-4.1,5.3-4.1
		v16.8h1.2V92z M704.1,75.2h-1.2v-4.9h1.7c3.7,0,4.8,1.7,4.8,4.1v13.5c0,2.7-1.2,4.1-5.3,4.1V75.2z M711.5,79.7v-5.2
		c0-2.4,1-4.1,4.8-4.1h7.8v4.9h-7.3v8.5C712.7,83.8,711.5,82.3,711.5,79.7z M719.5,87.1v-8.3c4.3,0,5.3,1.5,5.3,4.1v5
		c0,2.4-1.4,4.1-4.6,4.1h-7.8v-4.9H719.5z M569.3,135.6v13.2H545v-3.7h7.6v-4.7h4.1c-0.4-0.1-0.9-0.5-0.9-1l-0.6-4.7l-5.5-3.7
		c-0.6-0.3-0.9-0.9-0.8-1.5l1.1-6.5l-1.4,0.4l-0.9,4.8c-0.1,0.7-0.6,1.1-1.2,1.1c-0.6,0-1-0.7-0.8-1.5l0.8-4.7
		c0.2-1.1,0.8-1.6,2.1-1.9l3.4-0.9c0.4-0.1,0.8-0.1,1-0.1c1.4,0,2.1,1.1,1.8,2.7l-0.4,2.6l3.1,0.9c0.6,0.2,0.8,0.7,0.8,1.1
		c0,0.6-0.4,1.1-1,1.1c-0.1,0-0.3,0-0.5-0.1l-2.7-0.7l-0.4,2.5l3.2,2.2c0.5,0.3,0.8,0.8,0.9,1.3l0.8,6.9h1.7v-4.9H569.3z
		 M547.7,141.9c-0.8-0.6-0.9-1.2-0.2-2.2l4.1-6.2l2.2,1.1l-5.2,7.9L547.7,141.9z M551.5,118.7c-0.2-0.4-0.3-2.1-0.3-3
		c0-0.5,0.1-0.6,0.2-0.8c0.4-0.4,1-0.6,1.5-0.6c0.6,0,1.1,0.1,1.6,0.6c0.1,0.2,0.1,0.4,0.1,0.9c0,1,0,2.5-0.3,2.9
		c-0.1,0.2-0.5,0.5-1.4,0.5C552.2,119.2,551.7,118.9,551.5,118.7z M683.7,116.7v0.9h-10.4v-0.9l2-0.6v-6.2h1v6l2.1-0.6L683.7,116.7z
		 M682.9,120.7h0.8v0.8h-10.4v-0.8h0.8v-2.3h1.9v2.3h1.6v-2.3h1.9v2.3h1.6v-2.3h1.9V120.7z M679.2,113.8h-2.3v-3.9h3.3l0.7,0.7h2.5
		v3.9h-3.5L679.2,113.8z M524.7,62.6c6.8,0,12.4,2,16,4.4v12.5c0,10.4-9.3,14.9-14.7,17.9c-0.3,0.2-0.8,0.4-1.3,0.4s-1-0.2-1.3-0.4
		c-5.1-3-14.1-7.9-14.1-17.9V67C512.8,64.6,518.6,62.6,524.7,62.6z M697.6,197.2h-14.7V213H670v-15.7h-14.7v-12.8H670v-15.9h12.8
		v15.9h14.7V197.2z M718.7,160.5c0,1.4-1,2-1.8,2h-3.2c-0.7,0-1.3-0.4-1.6-1l-0.1-0.2v0l-10.3,0.2c-0.6,0-1-0.3-1-0.9
		c0-0.6,0.4-0.9,1-0.9l10.3,0.2v0l0.1-0.2c0.3-0.6,0.9-1,1.6-1h3.2C717.7,158.6,718.7,159.2,718.7,160.5z M717.9,165.9v0.3
		c0,0.2-0.2,0.4-0.5,0.4h-16c-0.2,0-0.4-0.2-0.4-0.4v-0.3c0-0.3,0.2-0.4,0.4-0.4h16C717.7,165.5,717.9,165.7,717.9,165.9z
		 M701.8,167.7h15.4c0,3.3-2,5.3-4.9,6.3h-5.5C703.8,173,701.8,171.1,701.8,167.7z M575.2,208.7c0,0.9-0.7,1.6-1.6,1.6H521
		c-0.9,0-1.6-0.7-1.6-1.6v-32.4c0-0.9,0.7-1.6,1.6-1.6h2.6c1.1-2.1,3.3-3.7,6-3.7c1.4,0,2.6,0.4,3.7,1l26.2-10.8l-0.1-0.2
		c-0.2-0.4,0-0.9,0.4-1l3.4-1.4c0.4-0.2,0.9,0,1,0.4l1.1,2.6c0.2,0.4-0.1,0.9-0.5,1l-3.4,1.4c-0.4,0.2-0.9,0-1-0.4l-0.1-0.2
		L535.1,174l0.5,0.7H559v-1.4h9.1v1.4h5.6c0.9,0,1.6,0.7,1.6,1.6V208.7z M571,179.4h-47.5v7.2H571V179.4z M523.5,192.5
		c0,1,0.8,1.8,1.8,1.8c1,0,1.8-0.8,1.8-1.8c0-1-0.7-1.8-1.8-1.8C524.3,190.8,523.5,191.6,523.5,192.5z M523.5,198.8
		c0,1,0.8,1.8,1.8,1.8c1,0,1.8-0.8,1.8-1.8c0-1-0.7-1.8-1.8-1.8C524.3,197,523.5,197.8,523.5,198.8z M523.5,205.1
		c0,1,0.8,1.8,1.8,1.8c1,0,1.8-0.8,1.8-1.8c0-1-0.7-1.8-1.8-1.8C524.3,203.3,523.5,204.1,523.5,205.1z M530.4,192.5
		c0,1,0.8,1.8,1.8,1.8c1,0,1.8-0.8,1.8-1.8c0-1-0.7-1.8-1.8-1.8C531.2,190.8,530.4,191.6,530.4,192.5z M530.4,198.8
		c0,1,0.8,1.8,1.8,1.8c1,0,1.8-0.8,1.8-1.8c0-1-0.7-1.8-1.8-1.8C531.2,197,530.4,197.8,530.4,198.8z M530.4,205.1
		c0,1,0.8,1.8,1.8,1.8c1,0,1.8-0.8,1.8-1.8c0-1-0.7-1.8-1.8-1.8C531.2,203.3,530.4,204.1,530.4,205.1z M537.4,192.5
		c0,1,0.8,1.8,1.8,1.8c1,0,1.8-0.8,1.8-1.8c0-1-0.7-1.8-1.8-1.8C538.2,190.8,537.4,191.6,537.4,192.5z M537.4,198.8
		c0,1,0.8,1.8,1.8,1.8c1,0,1.8-0.8,1.8-1.8c0-1-0.7-1.8-1.8-1.8C538.2,197,537.4,197.8,537.4,198.8z M537.4,205.1
		c0,1,0.8,1.8,1.8,1.8c1,0,1.8-0.8,1.8-1.8c0-1-0.7-1.8-1.8-1.8C538.2,203.3,537.4,204.1,537.4,205.1z M544.3,192.5
		c0,1,0.8,1.8,1.8,1.8c1,0,1.8-0.8,1.8-1.8c0-1-0.7-1.8-1.8-1.8C545.1,190.8,544.3,191.6,544.3,192.5z M544.3,198.8
		c0,1,0.8,1.8,1.8,1.8c1,0,1.8-0.8,1.8-1.8c0-1-0.7-1.8-1.8-1.8C545.1,197,544.3,197.8,544.3,198.8z M544.3,205.1
		c0,1,0.8,1.8,1.8,1.8c1,0,1.8-0.8,1.8-1.8c0-1-0.7-1.8-1.8-1.8C545.1,203.3,544.3,204.1,544.3,205.1z M553.9,199
		c0,4.1,3.3,7.4,7.4,7.4c4.1,0,7.4-3.3,7.4-7.4c0-4.1-3.3-7.4-7.4-7.4C557.3,191.6,553.9,194.8,553.9,199z M600.6,218.9v2.2h-19.2
		v-2.2h4.3c-1.2-1.2-1.9-2.8-1.9-4.6c0-3.4,2.5-7.4,2.5-9.7c0-1.2-0.2-1.8-0.5-2.1l0.4-0.6c0.7,0.2,2.5,1.2,2.5,3.3
		c0,2-2.3,6.1-2.3,9.1c0,2.7,2,4.6,4.6,4.6c2.7,0,4.6-1.9,4.6-4.4c0-2.5-2.3-3.8-2.3-6.4l0.3-1.6h0.7c0.6,2.1,3.9,4.5,3.9,8.3
		c0,1.5-0.7,3-1.7,4.1H600.6z M588.7,201.6l0.5-0.7c2.3,0.7,3.5,2.3,3.5,4.5c0,2.9-2.6,6.4-2.6,9c0,0.6,0.4,1,0.9,1
		c0.5,0,0.9-0.4,0.9-1c0-0.5-0.4-0.9-0.9-0.9l0.6-1.8c1.1,0.3,2.9,0.9,2.9,2.9s-1.5,3.4-3.5,3.4c-1.9,0-3.6-1.3-3.6-3.7
		c0-2.9,2.6-6.9,2.6-9.7C590,203.1,589.3,202,588.7,201.6z"/>
</g>
<g id="_x3C_Layer_x3E_">
</g>
<g id="pictos">
</g>
</svg>
